<svg width="28" height="28" viewBox="0 0 28 28" fill="none" xmlns="http://www.w3.org/2000/svg">
<path d="M25.7336 20.2255C25.6269 19.9365 25.3062 19.7887 25.0172 19.8953L19.2164 22.0357C18.9274 22.1423 18.7796 22.4631 18.8862 22.7521C18.9694 22.9774 19.1826 23.1169 19.4096 23.1169C19.4737 23.1169 19.5389 23.1058 19.6026 23.0823L25.4034 20.9419C25.6924 20.8353 25.8403 20.5145 25.7336 20.2255Z" fill="#F05C28"/>
<path d="M18.3386 22.9544C18.232 22.6654 17.9112 22.5175 17.6222 22.6242L17.3766 22.7148C17.0876 22.8214 16.9397 23.1422 17.0464 23.4312C17.1295 23.6565 17.3428 23.796 17.5697 23.796C17.6338 23.796 17.699 23.7849 17.7628 23.7614L18.0084 23.6708C18.2974 23.5642 18.4453 23.2435 18.3386 22.9544Z" fill="#F05C28"/>
<path d="M25.7338 17.9526C25.6271 17.6635 25.3064 17.5158 25.0174 17.6224L20.4332 19.3139C20.1442 19.4205 19.9964 19.7412 20.103 20.0303C20.1862 20.2556 20.3994 20.3951 20.6264 20.3951C20.6905 20.3951 20.7557 20.3839 20.8194 20.3605L25.4036 18.669C25.6926 18.5623 25.8404 18.2416 25.7338 17.9526Z" fill="#F05C28"/>
<path d="M25.7338 15.7034C25.6271 15.4144 25.3064 15.2667 25.0174 15.3732L20.4332 17.0647C20.1442 17.1713 19.9964 17.4921 20.103 17.7811C20.1862 18.0064 20.3994 18.1459 20.6264 18.1459C20.6905 18.1459 20.7557 18.1348 20.8194 18.1113L25.4036 16.4198C25.6926 16.3132 25.8404 15.9924 25.7338 15.7034Z" fill="#F05C28"/>
<path d="M27.6353 5.49756L14.1931 0.537627C14.0685 0.491689 13.9315 0.491689 13.807 0.537627L0.364711 5.49756L0.364602 5.498C0.320578 5.5143 0.27825 5.53585 0.238875 5.56324C0.0891953 5.66759 0 5.83849 0 6.02087V21.979C0 22.2126 0.145523 22.4214 0.364656 22.5023L13.8069 27.4623C13.8696 27.4854 13.9349 27.4967 13.9999 27.4967C14.0656 27.4967 14.131 27.4848 14.1929 27.4619L14.1931 27.4623L27.6353 22.5023C27.8545 22.4214 28 22.2126 28 21.979V6.02087C28 5.78724 27.8545 5.57845 27.6353 5.49756ZM13.4422 26.1387L1.11552 21.5903V6.82122L3.62545 7.74741V14.5056C3.62545 14.7392 3.77098 14.948 3.99011 15.0289L10.014 17.2517C10.0767 17.2748 10.142 17.2861 10.207 17.2861C10.3196 17.2861 10.4311 17.252 10.526 17.1859C10.6757 17.0816 10.7649 16.9107 10.7649 16.7284V10.3817L13.4421 11.3696V26.1387H13.4422ZM9.64939 9.97007V15.9279L4.74102 14.1168V8.15893L9.64939 9.97007ZM5.79452 7.35415L10.2071 5.72594L14.6198 7.35415L10.2071 8.98236L5.79452 7.35415ZM14 10.3863L11.8124 9.57911L16.4242 7.8774C16.6433 7.79652 16.7888 7.58772 16.7888 7.3541C16.7888 7.12047 16.6433 6.91167 16.4242 6.83079L10.4002 4.60807C10.2756 4.56213 10.1387 4.56213 10.014 4.60807L4.1772 6.76189L2.16907 6.02087L14 1.65549L25.8309 6.02092L14 10.3863ZM26.8845 21.5903L14.5578 26.1386V11.3696L26.8845 6.82122V21.5903Z" fill="#F05C28"/>
</svg>
