<svg width="31" height="24" viewBox="0 0 31 24" fill="none" xmlns="http://www.w3.org/2000/svg">
<path d="M19.4917 20.0788H9.63322C9.29405 20.0788 9.02271 19.8074 9.02271 19.4683C9.02271 18.0664 7.91476 16.9584 6.55809 16.9584C5.20141 16.9584 4.09346 18.0664 4.09346 19.4231C4.09346 19.7622 3.82212 20.1014 3.48295 20.1014H0.633937C0.294768 20.1014 0.0234375 19.8301 0.0234375 19.4909C0.0234375 19.1517 0.294768 18.8804 0.633937 18.8804H2.91767C3.21162 17.0941 4.72658 15.7374 6.5807 15.7374C8.43482 15.7374 9.94977 17.0941 10.2437 18.8804H18.8586V1.24362H11.216C10.8768 1.24362 10.6055 0.972281 10.6055 0.633112C10.6055 0.293944 10.8768 0.0226059 11.216 0.0226059H19.4691C19.8083 0.0226059 20.0796 0.293944 20.0796 0.633112V19.4909C20.1022 19.8074 19.8309 20.0788 19.4917 20.0788Z" fill="#F05C28"/>
<path d="M11.2149 1.22101H9.90347C9.5643 1.22101 9.29297 0.949672 9.29297 0.610503C9.29297 0.271334 9.5643 0 9.90347 0H11.2149C11.5541 0 11.8254 0.271334 11.8254 0.610503C11.848 0.92706 11.5767 1.22101 11.2149 1.22101Z" fill="#F05C28"/>
<path d="M29.7569 20.0788H28.0158C27.6766 20.0788 27.4053 19.8074 27.4053 19.4683C27.4053 18.0664 26.2973 16.9584 24.9407 16.9584C23.584 16.9584 22.476 18.0664 22.476 19.4231C22.476 19.7622 22.2047 20.1014 21.8655 20.1014H19.4914C19.1522 20.1014 18.8809 19.8301 18.8809 19.4909V5.81109C18.8809 5.47192 19.1522 5.20058 19.4914 5.20058H24.6693C24.8728 5.20058 25.0537 5.29103 25.1668 5.44931L28.1289 9.4515C28.875 9.51933 29.5534 9.83589 30.0734 10.3786C30.6839 10.9891 31.0005 11.7805 31.0005 12.6397V18.8804C31.0005 19.5361 30.4578 20.0788 29.7569 20.0788ZM28.6037 18.8352H29.7795V12.5945C29.7795 12.0744 29.576 11.577 29.2142 11.2152C28.8524 10.8534 28.355 10.6499 27.8349 10.6499C27.6314 10.6499 27.4505 10.5594 27.3375 10.4012L24.3754 6.39898H20.1245V18.8352H21.3003C21.5942 17.0489 23.1092 15.6922 24.9407 15.6922C26.7722 15.7148 28.3097 17.0715 28.6037 18.8352Z" fill="#F05C28"/>
<path d="M24.9395 23.1087C22.9271 23.1087 21.2765 21.4807 21.2539 19.4683C21.2539 17.3654 22.9045 15.7148 24.9395 15.7148C26.9745 15.7148 28.6478 17.3654 28.6478 19.4231V19.4683C28.6026 21.4807 26.9519 23.1087 24.9395 23.1087ZM24.9395 16.9584C23.5829 16.9584 22.4749 18.0664 22.4749 19.4231C22.4975 20.8023 23.6055 21.8877 24.9395 21.8877C26.2736 21.8877 27.3815 20.8023 27.4042 19.4683L28.0147 19.4231H27.4042C27.4042 18.0438 26.2962 16.9584 24.9395 16.9584Z" fill="#F05C28"/>
<path d="M6.55785 23.1087C4.54545 23.1087 2.89483 21.4807 2.84961 19.4683C2.84961 17.3654 4.50023 15.7148 6.55785 15.7148C8.59286 15.7148 10.2435 17.3654 10.2435 19.4231V19.4683C10.2209 21.4807 8.57025 23.1087 6.55785 23.1087ZM6.55785 16.9584C5.20118 16.9584 4.09323 18.0664 4.09323 19.4231C4.11584 20.8023 5.22379 21.8877 6.55785 21.8877C7.89192 21.8877 8.99986 20.8023 9.02248 19.4683L9.63298 19.4231H9.02248C9.02248 18.0438 7.91453 16.9584 6.55785 16.9584Z" fill="#F05C28"/>
<path d="M27.812 10.6499H22.4757C22.1366 10.6499 21.8652 10.3786 21.8652 10.0394V5.78848C21.8652 5.44931 22.1366 5.17798 22.4757 5.17798C22.8149 5.17798 23.0862 5.44931 23.0862 5.78848V9.40628H27.7894C28.1286 9.40628 28.3999 9.67762 28.3999 10.0168C28.4225 10.3786 28.1512 10.6499 27.812 10.6499Z" fill="#F05C28"/>
<path d="M9.63239 9.63239H0.610499C0.271331 9.63239 0 9.36106 0 9.02189C0 8.68272 0.271331 8.41139 0.610499 8.41139H9.63239C9.97156 8.41139 10.2429 8.68272 10.2429 9.02189C10.2429 9.33845 9.97156 9.63239 9.63239 9.63239Z" fill="#F05C28"/>
<path d="M13.816 5.44931H4.79409C4.45492 5.44931 4.18359 5.17798 4.18359 4.83881C4.18359 4.49964 4.45492 4.2283 4.79409 4.2283H13.816C14.1552 4.2283 14.4265 4.49964 14.4265 4.83881C14.4265 5.17798 14.1552 5.44931 13.816 5.44931Z" fill="#F05C28"/>
</svg>
