<svg width="39" height="29" viewBox="0 0 39 29" fill="none" xmlns="http://www.w3.org/2000/svg">
<path d="M34.6767 18.8075H11.9812C11.5743 18.8075 11.2578 18.491 11.2578 18.0841C11.2578 17.6772 11.5743 17.3607 11.9812 17.3607H34.089L36.8468 4.65666H13.654C13.2471 4.65666 12.9306 4.34019 12.9306 3.9333C12.9306 3.52641 13.2471 3.20993 13.654 3.20993H37.7962C38.0223 3.20993 38.2484 3.30035 38.384 3.48119C38.5196 3.66204 38.5648 3.88808 38.5196 4.11414L35.4001 18.3102C35.3097 18.5814 35.0384 18.8075 34.6767 18.8075Z" fill="white"/>
<path d="M29.7934 25.7699H16.3659C15.9591 25.7699 15.6426 25.4534 15.6426 25.0465C15.6426 24.6396 15.9591 24.3232 16.3659 24.3232H29.7934C30.2003 24.3232 30.5168 24.6396 30.5168 25.0465C30.562 25.4082 30.2003 25.7699 29.7934 25.7699Z" fill="white"/>
<path d="M12.6135 22.9216C12.2518 22.9216 11.9805 22.6956 11.8901 22.3339L11.0311 18.2197C10.9407 17.8128 11.2119 17.406 11.6188 17.3607C12.0257 17.2703 12.4326 17.5416 12.4778 17.9485L13.3368 22.0626C13.4272 22.4695 13.156 22.8764 12.7491 22.9216C12.7491 22.9216 12.6587 22.9216 12.6135 22.9216Z" fill="white"/>
<path d="M11.7559 18.8075C11.3942 18.8075 11.123 18.5814 11.0325 18.2197L7.46093 1.44673H4.20579C3.7989 1.44673 3.48242 1.13025 3.48242 0.72336C3.48242 0.316468 3.7989 0 4.20579 0H8.04866C8.41034 0 8.6816 0.226046 8.77202 0.587728L12.4341 17.9485C12.5245 18.3554 12.2532 18.7623 11.8463 18.8075C11.8463 18.8075 11.8011 18.8075 11.7559 18.8075Z" fill="white"/>
<path d="M13.6531 28.2112C11.7542 28.2112 10.1719 26.6288 10.1719 24.73C10.1719 23.2833 11.0309 22.0626 12.342 21.5201C12.7037 21.3392 13.1558 21.2488 13.6531 21.2488C15.5519 21.2488 17.1343 22.786 17.1343 24.73C17.1343 24.8656 17.1343 24.9561 17.1343 25.0917C16.9082 26.8549 15.4163 28.2112 13.6531 28.2112ZM13.6531 22.7407C13.3818 22.7407 13.1557 22.786 12.9297 22.8764C12.1611 23.1929 11.6638 23.9162 11.6638 24.73C11.6638 25.815 12.568 26.7193 13.6531 26.7193C14.6477 26.7193 15.5067 25.9507 15.6423 24.9108C15.6423 24.8656 15.6423 24.7752 15.6423 24.6848C15.6423 23.5997 14.7381 22.7407 13.6531 22.7407Z" fill="white"/>
<path d="M32.7331 28.2112C30.8343 28.2112 29.252 26.6288 29.252 24.73C29.252 23.2833 30.1109 22.0626 31.422 21.5201C31.7837 21.3392 32.2358 21.2488 32.7331 21.2488C34.632 21.2488 36.2143 22.786 36.2143 24.73C36.2143 24.8656 36.2143 24.9561 36.2143 25.0917C35.9883 26.8549 34.5416 28.2112 32.7331 28.2112ZM32.7331 22.7407C32.4619 22.7407 32.2358 22.786 32.0098 22.8764C31.2412 23.1929 30.7439 23.9162 30.7439 24.73C30.7439 25.815 31.6481 26.7193 32.7331 26.7193C33.7278 26.7193 34.5868 25.9507 34.7224 24.9108C34.7224 24.8656 34.7224 24.7752 34.7224 24.6848C34.7224 23.5997 33.8634 22.7407 32.7331 22.7407Z" fill="white"/>
<path d="M12.1609 8.04744H5.42454C5.01765 8.04744 4.70117 7.73097 4.70117 7.32408C4.70117 6.91718 5.01765 6.60071 5.42454 6.60071H12.1609C12.5678 6.60071 12.8842 6.91718 12.8842 7.32408C12.8842 7.68576 12.5678 8.04744 12.1609 8.04744Z" fill="white"/>
<path d="M5.42523 11.7999H0.72336C0.316468 11.7999 0 11.4834 0 11.0765C0 10.6696 0.316468 10.3531 0.72336 10.3531H5.42523C5.83212 10.3531 6.14859 10.6696 6.14859 11.0765C6.14859 11.4834 5.83212 11.7999 5.42523 11.7999Z" fill="white"/>
<path d="M12.1609 15.5976H5.42454C5.01765 15.5976 4.70117 15.2811 4.70117 14.8742C4.70117 14.4673 5.01765 14.1508 5.42454 14.1508H12.1609C12.5678 14.1508 12.8842 14.4673 12.8842 14.8742C12.8842 15.2811 12.5678 15.5976 12.1609 15.5976Z" fill="white"/>
</svg>
