<svg width="28" height="25" viewBox="0 0 28 25" fill="none" xmlns="http://www.w3.org/2000/svg">
<path d="M25.0431 16.764H8.66312C8.40312 16.764 8.19512 16.608 8.14312 16.348L5.90712 6.156C5.85512 6 5.90712 5.844 6.01112 5.74C6.11512 5.636 6.27112 5.53199 6.42712 5.53199H9.13112C9.44312 5.53199 9.65112 5.79199 9.65112 6.052C9.65112 6.364 9.39112 6.572 9.13112 6.572H7.05112L9.07912 15.724H24.5751L26.6031 6.52H24.5231C24.2111 6.52 24.0031 6.26 24.0031 6C24.0031 5.688 24.2631 5.48 24.5231 5.48H27.2271C27.3831 5.48 27.5391 5.532 27.6431 5.688C27.7471 5.792 27.7991 6 27.7471 6.156L25.5111 16.348C25.4591 16.556 25.2511 16.764 25.0431 16.764Z" fill="white"/>
<path d="M21.5065 22.276H11.8345C11.5225 22.276 11.3145 22.016 11.3145 21.756C11.3145 21.496 11.5745 21.236 11.8345 21.236H21.5065C21.8185 21.236 22.0265 21.496 22.0265 21.756C22.0265 22.016 21.8185 22.276 21.5065 22.276Z" fill="white"/>
<path d="M9.13126 20.248C8.87126 20.248 8.66326 20.092 8.61127 19.832L5.43927 4.232H0.967266C0.655266 4.232 0.447266 3.972 0.447266 3.712C0.447266 3.4 0.707266 3.192 0.967266 3.192H5.90727C6.16727 3.192 6.37527 3.348 6.42727 3.608L9.70327 19.624C9.75527 19.884 9.59927 20.196 9.28727 20.248C9.23527 20.248 9.18326 20.248 9.13126 20.248Z" fill="white"/>
<path d="M9.85928 24.044C8.50728 24.044 7.36328 22.9 7.36328 21.548C7.36328 20.508 7.98728 19.624 8.92328 19.26C9.18328 19.156 9.49528 19.104 9.85928 19.104C11.2113 19.104 12.3553 20.196 12.3553 21.6C12.3553 21.704 12.3553 21.756 12.3553 21.86C12.1993 23.108 11.1593 24.044 9.85928 24.044ZM9.85928 20.092C9.65128 20.092 9.49528 20.144 9.33928 20.196C8.76728 20.404 8.40328 20.976 8.40328 21.548C8.40328 22.328 9.02728 23.004 9.85928 23.004C10.5873 23.004 11.2113 22.432 11.3153 21.704C11.3153 21.652 11.3153 21.6 11.3153 21.548C11.3153 20.768 10.6913 20.092 9.85928 20.092Z" fill="white"/>
<path d="M23.6386 24.044C22.2866 24.044 21.1426 22.9 21.1426 21.548C21.1426 20.508 21.7666 19.624 22.7026 19.26C22.9626 19.156 23.2746 19.104 23.6386 19.104C24.9906 19.104 26.1346 20.196 26.1346 21.6C26.1346 21.704 26.1346 21.756 26.1346 21.86C25.9786 23.108 24.8866 24.044 23.6386 24.044ZM23.6386 20.092C23.4306 20.092 23.2746 20.144 23.1186 20.196C22.5466 20.404 22.1826 20.976 22.1826 21.548C22.1826 22.328 22.8066 23.004 23.6386 23.004C24.3666 23.004 24.9906 22.432 25.0946 21.704C25.0946 21.652 25.0946 21.6 25.0946 21.548C25.0946 20.768 24.4186 20.092 23.6386 20.092Z" fill="white"/>
<path d="M16.8279 11.98C13.6039 11.98 11.0039 9.38 11.0039 6.156C11.0039 2.932 13.6039 0.279999 16.8279 0.279999C20.0519 0.279999 22.6519 2.88 22.6519 6.104C22.6519 9.328 20.0519 11.98 16.8279 11.98ZM16.8279 1.32C14.1759 1.32 12.0439 3.452 12.0439 6.104C12.0439 8.756 14.1759 10.888 16.8279 10.888C19.4799 10.888 21.6119 8.756 21.6119 6.104C21.6119 3.452 19.4799 1.32 16.8279 1.32Z" fill="white"/>
<path d="M16.4626 8.86C16.3586 8.756 16.3066 8.652 16.3066 8.496V3.764C16.3066 3.452 16.5666 3.244 16.8266 3.244C17.0866 3.244 17.3466 3.504 17.3466 3.764V8.496C17.3466 8.808 17.0866 9.016 16.8266 9.016C16.7226 9.016 16.5666 8.964 16.4626 8.86Z" fill="white"/>
<path d="M14.1228 6.52002C14.0188 6.41602 13.9668 6.31202 13.9668 6.15602C13.9668 5.84402 14.2268 5.63602 14.4868 5.63602H19.2188C19.5308 5.63602 19.7388 5.89602 19.7388 6.15602C19.7388 6.41602 19.4788 6.67602 19.2188 6.67602H14.4868C14.3308 6.62402 14.2268 6.57202 14.1228 6.52002Z" fill="white"/>
</svg>
