<svg width="29" height="29" viewBox="0 0 29 29" fill="none" xmlns="http://www.w3.org/2000/svg">
<g clip-path="url(#clip0)">
<path d="M26.9699 16.2524L26.2189 13.2484C26.4242 13.2048 26.5783 13.0226 26.5783 12.8044V12.3201C26.5783 11.2685 25.7227 10.413 24.6712 10.413H21.2505V9.41401C21.2505 8.89654 20.8296 8.47559 20.3121 8.47559H13.9517L17.8169 6.92953C18.0497 6.83641 18.1629 6.57213 18.0698 6.33928C17.9767 6.10648 17.7126 5.99314 17.4796 6.08632L14.3148 7.35218C15.2792 6.73344 16.2333 6.05245 16.5966 5.57621C17.3037 4.64906 17.1246 3.31948 16.1975 2.61232C15.2703 1.90511 13.9407 2.08426 13.2336 3.01141C12.7169 3.68895 12.0352 5.5927 11.5939 6.93423C11.1527 5.59281 10.471 3.68895 9.95431 3.01141C9.2472 2.08426 7.91757 1.90522 6.99042 2.61232C6.06327 3.31942 5.88422 4.64901 6.59133 5.57621C6.95456 6.0525 7.90862 6.73344 8.87304 7.35218L5.7083 6.08632C5.47534 5.99303 5.21116 6.10643 5.11805 6.33928C5.02487 6.57213 5.13815 6.83641 5.371 6.92953L9.23616 8.47559H2.87576C2.35829 8.47559 1.93734 8.89654 1.93734 9.41401V17.6479C1.93734 17.8986 2.14062 18.102 2.39142 18.102C2.64217 18.102 2.84551 17.8987 2.84551 17.6479V9.41401C2.84551 9.3973 2.85905 9.38377 2.87576 9.38377H20.3121C20.3288 9.38377 20.3423 9.3973 20.3423 9.41401V17.648C20.3423 17.8987 20.5456 18.1021 20.7964 18.1021C21.0471 18.1021 21.2505 17.8988 21.2505 17.648V17.1332H26.6068C26.6073 17.1332 26.6077 17.1333 26.6082 17.1333C26.6087 17.1333 26.6091 17.1333 26.6097 17.1333C27.2687 17.1338 27.8283 17.5664 28.0205 18.1625H26.6085C26.3578 18.1625 26.1544 18.3658 26.1544 18.6166V19.5853C26.1544 20.3698 26.7927 21.008 27.5772 21.008H28.0918V23.0059H26.9045C26.5145 21.8798 25.4439 21.0685 24.1868 21.0685C22.9297 21.0685 21.859 21.8797 21.4691 23.0059H21.2504V19.5852C21.2504 19.3345 21.0471 19.1311 20.7963 19.1311C20.5456 19.1311 20.3423 19.3344 20.3423 19.5852V23.0058H10.9213C10.5312 21.8797 9.46068 21.0685 8.20355 21.0685C6.94641 21.0685 5.87578 21.8797 5.48581 23.0058H2.87576C2.85905 23.0058 2.84551 22.9923 2.84551 22.9756V21.9766H4.81315C5.0639 21.9766 5.26724 21.7733 5.26724 21.5225C5.26724 21.2717 5.06395 21.0685 4.81315 21.0685H0.454088C0.20334 21.0685 0 21.2717 0 21.5225C0 21.7733 0.203283 21.9766 0.454088 21.9766H1.93739V22.9756C1.93739 23.4931 2.35835 23.914 2.87581 23.914H5.32858C5.32847 23.9241 5.32779 23.9341 5.32779 23.9443C5.32779 25.5299 6.61789 26.82 8.20355 26.82C9.7892 26.82 11.0793 25.5299 11.0793 23.9443C11.0793 23.9341 11.0786 23.9241 11.0785 23.914H21.3118C21.3117 23.9241 21.311 23.9341 21.311 23.9443C21.311 25.5299 22.6011 26.82 24.1867 26.82C25.7724 26.82 27.0625 25.5299 27.0625 23.9443C27.0625 23.9341 27.0618 23.9241 27.0617 23.914H28.5459C28.7966 23.914 28.9999 23.7107 28.9999 23.4599V18.6165C29 17.4206 28.1177 16.427 26.9699 16.2524ZM9.79316 6.85686C8.00202 5.74381 7.47073 5.23172 7.31344 5.02544C6.90999 4.49647 7.01217 3.73788 7.54119 3.33443C7.75926 3.16814 8.01629 3.08776 8.27146 3.08776C8.6352 3.08776 8.9951 3.25123 9.23225 3.56218C9.6715 4.13811 10.3594 6.07652 10.8135 7.47333C10.5071 7.29288 10.1548 7.08167 9.79316 6.85686ZM12.3744 7.47328C12.8286 6.07652 13.5165 4.13816 13.9557 3.56213C14.3591 3.03316 15.1177 2.93104 15.6467 3.33443C16.1757 3.73788 16.2778 4.49647 15.8744 5.02544C15.7171 5.23167 15.1859 5.74381 13.3948 6.8568C13.0333 7.08155 12.681 7.29282 12.3744 7.47328ZM21.2505 11.321H24.6712C25.222 11.321 25.6702 11.7692 25.6702 12.32V12.3503H21.2505V11.321ZM21.2505 16.2251V13.2584H25.2853L26.027 16.2251H21.2505ZM8.20355 25.9119C7.11859 25.9119 6.23591 25.0292 6.23591 23.9443C6.23591 22.8593 7.11859 21.9766 8.20355 21.9766C9.2885 21.9766 10.1712 22.8593 10.1712 23.9443C10.1712 25.0292 9.2885 25.9119 8.20355 25.9119ZM24.1868 25.9119C23.1019 25.9119 22.2192 25.0292 22.2192 23.9443C22.2192 22.8593 23.1019 21.9766 24.1868 21.9766C25.2718 21.9766 26.1545 22.8593 26.1545 23.9443C26.1545 25.0292 25.2718 25.9119 24.1868 25.9119ZM28.0919 20.0998H27.5772C27.2935 20.0998 27.0626 19.8689 27.0626 19.5851V19.0705H28.0918V20.0998H28.0919Z" fill="#F05C28"/>
<path d="M8.20405 23.0058C7.68658 23.0058 7.26562 23.4268 7.26562 23.9443C7.26562 24.4617 7.68658 24.8827 8.20405 24.8827C8.72152 24.8827 9.14247 24.4617 9.14247 23.9443C9.14247 23.4268 8.72152 23.0058 8.20405 23.0058Z" fill="#F05C28"/>
<path d="M24.1865 23.0058C23.669 23.0058 23.248 23.4268 23.248 23.9443C23.248 24.4617 23.669 24.8827 24.1865 24.8827C24.7039 24.8827 25.1249 24.4617 25.1249 23.9443C25.1249 23.4268 24.7039 23.0058 24.1865 23.0058Z" fill="#F05C28"/>
<path d="M18.8599 21.0684H12.0791C11.8283 21.0684 11.625 21.2717 11.625 21.5225C11.625 21.7733 11.8283 21.9766 12.0791 21.9766H18.8599C19.1106 21.9766 19.314 21.7733 19.314 21.5225C19.314 21.2717 19.1107 21.0684 18.8599 21.0684Z" fill="#F05C28"/>
<path d="M7.23523 12.3503H5.29784C5.04709 12.3503 4.84375 12.5535 4.84375 12.8044V16.6791C4.84375 16.9298 5.04703 17.1332 5.29784 17.1332C5.54864 17.1332 5.75192 16.9299 5.75192 16.6791V15.1958H6.7509C7.00164 15.1958 7.20498 14.9925 7.20498 14.7417C7.20498 14.4909 7.0017 14.2876 6.7509 14.2876H5.75192V13.2584H7.23523C7.48598 13.2584 7.68932 13.0552 7.68932 12.8044C7.68926 12.5536 7.48598 12.3503 7.23523 12.3503Z" fill="#F05C28"/>
<path d="M7.23496 19.1311H1.42284C1.17209 19.1311 0.96875 19.3344 0.96875 19.5852C0.96875 19.836 1.17203 20.0393 1.42284 20.0393H7.23496C7.48571 20.0393 7.68905 19.836 7.68905 19.5852C7.68905 19.3344 7.48571 19.1311 7.23496 19.1311Z" fill="#F05C28"/>
<path d="M10.8089 15.4087C11.2633 15.111 11.5643 14.5978 11.5643 14.0152C11.5643 13.0971 10.8174 12.3503 9.89933 12.3503H8.68846C8.43771 12.3503 8.23438 12.5535 8.23438 12.8044V16.6791C8.23438 16.9298 8.43766 17.1332 8.68846 17.1332C8.93927 17.1332 9.14255 16.9299 9.14255 16.6791V15.6801H9.89848L10.7323 16.9309C10.8198 17.0621 10.9638 17.1332 11.1105 17.1332C11.1971 17.1332 11.2846 17.1085 11.362 17.0568C11.5707 16.9178 11.627 16.6358 11.4879 16.4272L10.8089 15.4087ZM9.89933 14.772H9.14255V13.2584H9.89933C10.3167 13.2584 10.6561 13.5979 10.6561 14.0152C10.6561 14.4325 10.3167 14.772 9.89933 14.772Z" fill="#F05C28"/>
<path d="M14.5009 16.2251H13.0176V15.1943C13.0276 15.195 13.0376 15.1958 13.0478 15.1958H14.0165C14.2672 15.1958 14.4706 14.9926 14.4706 14.7417C14.4706 14.4909 14.2673 14.2877 14.0165 14.2877H13.0478C13.0375 14.2877 13.0276 14.2885 13.0176 14.2892V13.2584H14.5009C14.7516 13.2584 14.9549 13.0552 14.9549 12.8044C14.9549 12.5536 14.7517 12.3503 14.5009 12.3503H12.5635C12.3127 12.3503 12.1094 12.5535 12.1094 12.8044V16.6791C12.1094 16.9298 12.3127 17.1332 12.5635 17.1332H14.5009C14.7516 17.1332 14.9549 16.9299 14.9549 16.6791C14.9549 16.4283 14.7516 16.2251 14.5009 16.2251Z" fill="#F05C28"/>
<path d="M17.8915 16.2251H16.4082V15.1958H16.9228C17.1736 15.1958 17.3769 14.9926 17.3769 14.7417C17.3769 14.4909 17.1736 14.2877 16.9228 14.2877H16.4082V13.2584H17.8915C18.1422 13.2584 18.3456 13.0552 18.3456 12.8044C18.3456 12.5536 18.1423 12.3503 17.8915 12.3503H15.9541C15.7033 12.3503 15.5 12.5535 15.5 12.8044V16.6791C15.5 16.9298 15.7033 17.1332 15.9541 17.1332H17.8915C18.1422 17.1332 18.3456 16.9299 18.3456 16.6791C18.3456 16.4283 18.1422 16.2251 17.8915 16.2251Z" fill="#F05C28"/>
</g>
<defs>
<clipPath id="clip0">
<rect width="29" height="29" fill="white"/>
</clipPath>
</defs>
</svg>
