<svg width="27" height="28" viewBox="0 0 27 28" fill="none" xmlns="http://www.w3.org/2000/svg">
<path d="M21.3935 0H5.6085C4.71084 0 3.98047 0.757371 3.98047 1.68833V26.3117C3.98047 27.2426 4.71079 28 5.6085 28H18.5079C18.6583 28 18.8024 27.938 18.9087 27.8279L22.8556 23.7348C22.9619 23.6245 23.0216 23.475 23.0216 23.3192V1.68833C23.0216 0.757371 22.2913 0 21.3935 0ZM19.0748 25.9932V24.4197C19.0748 24.137 19.2966 23.9069 19.5693 23.9069H21.0865L19.0748 25.9932ZM5.6085 1.17552H21.3935C21.6662 1.17552 21.888 1.40553 21.888 1.68833V3.5049H5.11401V1.68833C5.11401 1.40553 5.33586 1.17552 5.6085 1.17552ZM5.11401 26.3117V4.68042H21.888V22.7314H19.5693C18.6715 22.7314 17.9412 23.4887 17.9412 24.4197V26.8245H5.6085C5.33586 26.8245 5.11401 26.5944 5.11401 26.3117Z" fill="#F05C28"/>
<path d="M7.44763 9.03257H14.8696C15.1826 9.03257 15.4364 8.76943 15.4364 8.44482C15.4364 8.1202 15.1826 7.85706 14.8696 7.85706H7.44763C7.13461 7.85706 6.88086 8.1202 6.88086 8.44482C6.88086 8.76943 7.13461 9.03257 7.44763 9.03257Z" fill="#F05C28"/>
<path d="M17.1371 9.03257H19.0533C19.3663 9.03257 19.6201 8.76943 19.6201 8.44482C19.6201 8.1202 19.3663 7.85706 19.0533 7.85706H17.1371C16.8241 7.85706 16.5703 8.1202 16.5703 8.44482C16.5703 8.76943 16.8241 9.03257 17.1371 9.03257Z" fill="#F05C28"/>
<path d="M7.44763 13.6996H14.8696C15.1826 13.6996 15.4364 13.4365 15.4364 13.1119C15.4364 12.7873 15.1826 12.5241 14.8696 12.5241H7.44763C7.13461 12.5241 6.88086 12.7873 6.88086 13.1119C6.88086 13.4365 7.13461 13.6996 7.44763 13.6996Z" fill="#F05C28"/>
<path d="M17.1371 13.6996H19.0533C19.3663 13.6996 19.6201 13.4365 19.6201 13.1119C19.6201 12.7873 19.3663 12.5241 19.0533 12.5241H17.1371C16.8241 12.5241 16.5703 12.7873 16.5703 13.1119C16.5703 13.4365 16.8241 13.6996 17.1371 13.6996Z" fill="#F05C28"/>
<path d="M15.4364 17.779C15.4364 17.4544 15.1826 17.1912 14.8696 17.1912H7.44763C7.13461 17.1912 6.88086 17.4544 6.88086 17.779C6.88086 18.1036 7.13461 18.3667 7.44763 18.3667H14.8696C15.1826 18.3667 15.4364 18.1036 15.4364 17.779Z" fill="#F05C28"/>
<path d="M17.1371 18.3667H19.0533C19.3663 18.3667 19.6201 18.1036 19.6201 17.779C19.6201 17.4544 19.3663 17.1912 19.0533 17.1912H17.1371C16.8241 17.1912 16.5703 17.4544 16.5703 17.779C16.5703 18.1036 16.8241 18.3667 17.1371 18.3667Z" fill="#F05C28"/>
<path d="M19.0525 21.7253C19.3655 21.7253 19.6192 21.4622 19.6192 21.1376C19.6192 20.813 19.3655 20.5498 19.0525 20.5498H13.6547C13.3416 20.5498 13.0879 20.813 13.0879 21.1376C13.0879 21.4622 13.3416 21.7253 13.6547 21.7253H19.0525Z" fill="#F05C28"/>
</svg>
