<svg width="32" height="29" viewBox="0 0 32 29" fill="none" xmlns="http://www.w3.org/2000/svg">
<path d="M22.6775 21.0447H22.4373C22.1971 20.8045 21.9569 20.5643 21.9569 20.3241V19.8437C21.9569 19.6035 21.9569 19.6035 22.1971 19.3633C22.4373 19.1231 22.4373 19.1231 22.4373 18.6427C22.1971 18.4026 21.9569 17.9222 21.4765 17.9222C21.2363 17.9222 20.9961 17.682 20.9961 17.4418C20.9961 17.2016 20.9961 16.9614 21.4765 16.7212L25.3196 14.7996C26.2804 14.3193 27.7215 14.5594 28.4421 15.5202L28.9225 16.2408C28.9225 16.481 29.1627 16.481 29.1627 16.7212C29.1627 16.9614 28.9225 17.2016 28.9225 17.2016L25.0794 19.6035C24.3588 20.0839 23.6382 20.5643 22.9176 21.0447H22.6775ZM22.9176 17.2016C23.1578 17.4418 23.398 17.9222 23.6382 18.1624C23.6382 18.4026 23.6382 18.4026 23.6382 18.6427C23.8784 18.4026 24.1186 18.4026 24.3588 18.1624L27.4813 16.2408L27.2411 16.0006C27.0009 15.5202 26.2804 15.5202 25.8 15.7604L22.9176 17.2016Z" fill="#F05C28"/>
<path d="M17.1533 28.2505C16.6729 28.2505 16.1925 28.2505 15.7121 28.0103L6.10434 24.6476C5.62396 24.4074 4.90337 24.4074 4.18279 24.6476L0.820074 25.8485C0.57988 26.0887 0.0994916 25.8485 0.0994916 25.6083C-0.140702 25.3681 0.0994917 24.8878 0.339686 24.8878L3.7024 23.6868C4.66318 23.2064 5.62396 23.2064 6.58473 23.6868L16.1925 27.0495C17.1533 27.2897 18.114 27.2897 18.8346 26.8093L23.6385 23.4466C25.5601 22.2456 27.2414 20.8045 28.9228 19.3633L30.6041 17.9221C30.8443 17.6819 30.8443 17.4417 30.6041 16.9614C30.3639 16.7212 30.1238 16.7212 29.8836 16.7212L25.0797 19.6035C24.1189 20.3241 22.6777 21.0447 21.4768 22.0054C20.7562 22.9662 19.7954 23.2064 18.5944 23.2064C16.9131 22.9662 15.7121 21.2848 15.2317 20.8045H12.1092C11.869 20.8045 11.3886 20.5643 11.3886 20.0839C11.3886 19.6035 11.869 19.3633 12.1092 19.3633H22.1973C22.6777 19.1231 22.6777 18.8829 22.4375 18.6427C22.1973 18.4025 21.9572 17.9221 21.4768 17.9221L9.70726 16.2408C8.98667 16.2408 8.50628 16.2408 7.7857 16.481L1.30046 18.8829C1.06027 18.8829 0.57988 18.8829 0.57988 18.4025C0.57988 18.1623 0.57988 17.6819 1.06027 17.6819L7.54551 15.28C8.26609 15.0398 9.22687 14.7996 9.94745 15.0398L21.4768 16.7212C22.4375 16.9614 23.1581 17.4417 23.6385 18.4025C23.6385 18.6427 23.6385 18.6427 23.6385 18.8829C23.8787 18.6427 24.1189 18.6427 24.3591 18.4025L29.163 15.5202C29.8836 15.0398 31.0845 15.28 31.5649 16.0006C32.2855 16.7212 32.0453 17.9221 31.3247 18.6427L29.6434 20.0839C27.962 21.525 26.0405 22.9662 24.3591 24.1672L19.5552 27.5299C18.8346 28.0103 18.114 28.2505 17.1533 28.2505ZM16.9131 20.8045C17.3935 21.2848 18.114 21.7652 18.8346 22.0054C19.5552 22.0054 20.0356 21.7652 20.7562 21.2848C20.9964 21.0447 20.9964 21.0447 21.2366 20.8045H16.9131Z" fill="#F05C28"/>
<path d="M25.229 12.878H5.77332C5.53312 12.878 5.05273 12.6378 5.05273 12.1574V1.10852C5.05273 0.628134 5.29293 0.387939 5.77332 0.387939H25.229C25.4692 0.387939 25.9496 0.628134 25.9496 1.10852V12.3976C25.7094 12.6378 25.4692 12.878 25.229 12.878ZM6.2537 11.6771H24.5085V1.58891H6.2537V11.6771Z" fill="#F05C28"/>
<path d="M21.1462 10.2359H9.61687C9.37667 10.2359 8.89628 9.99572 8.89628 9.51533C8.89628 9.03494 8.89628 9.03494 8.89628 9.03494C8.89628 9.03494 8.89628 9.03494 8.4159 9.03494C8.1757 9.03494 7.69531 8.79475 7.69531 8.31436V4.95164C7.69531 4.71145 7.93551 4.23106 8.4159 4.23106C8.89628 4.23106 8.89628 4.23106 8.89628 4.23106C8.89628 4.23106 8.89628 4.23106 8.89628 3.75067C8.89628 3.51048 9.13648 3.03009 9.61687 3.03009H21.1462C21.3864 3.03009 21.8668 3.27028 21.8668 3.75067C21.8668 4.23106 21.8668 4.23106 21.8668 4.23106C21.8668 4.23106 21.8668 4.23106 22.3472 4.23106C22.5873 4.23106 23.0677 4.47125 23.0677 4.95164V8.31436C23.0677 8.55455 22.8275 9.03494 22.3472 9.03494C21.8668 9.03494 21.8668 9.03494 21.8668 9.03494C21.8668 9.03494 21.8668 9.03494 21.8668 9.51533C21.8668 9.99572 21.6266 10.2359 21.1462 10.2359ZM10.0973 9.03494H20.4256C20.4256 8.31436 20.906 8.07417 21.6266 7.83397V5.43203C20.906 5.43203 20.6658 4.95164 20.4256 4.23106H10.0973C10.0973 4.95164 9.61687 5.19184 8.89628 5.43203V7.59378C9.61687 7.83397 10.0973 8.31436 10.0973 9.03494Z" fill="#F05C28"/>
<path d="M15.3807 7.83401C16.0439 7.83401 16.5816 7.29632 16.5816 6.63304C16.5816 5.96976 16.0439 5.43207 15.3807 5.43207C14.7174 5.43207 14.1797 5.96976 14.1797 6.63304C14.1797 7.29632 14.7174 7.83401 15.3807 7.83401Z" fill="#F05C28"/>
<path d="M20.4254 7.35358H18.9843C18.7441 7.35358 18.2637 7.11338 18.2637 6.633C18.2637 6.3928 18.5039 5.91241 18.9843 5.91241H20.4254C20.6656 5.91241 21.146 6.15261 21.146 6.633C20.9058 7.11338 20.6656 7.35358 20.4254 7.35358Z" fill="#F05C28"/>
<path d="M11.779 7.35358H10.578C10.3378 7.35358 9.85742 7.11338 9.85742 6.633C9.85742 6.3928 10.0976 5.91241 10.578 5.91241H12.0192C12.2594 5.91241 12.7398 6.15261 12.7398 6.633C12.4996 7.11338 12.2594 7.35358 11.779 7.35358Z" fill="#F05C28"/>
</svg>
