<svg width="31" height="27" viewBox="0 0 31 27" fill="none" xmlns="http://www.w3.org/2000/svg">
<path d="M0.0242542 10.8977L0.0603415 21.1599L5.38994 21.196L10.7195 21.2203L10.6834 22.1585L10.6474 23.0849L8.30113 23.1453L5.9549 23.2056V24.7698V26.3339H13.474H20.993V24.7698V23.2056L18.6468 23.1453L16.3006 23.0849L16.2645 22.1467L16.2284 21.2203H18.1049H19.9696V21.6894C19.9696 22.0384 20.0299 22.1828 20.1861 22.2307C20.631 22.3508 22.989 22.5797 23.0612 22.4951C23.1091 22.4472 23.1813 22.1585 23.2174 21.8456L23.2777 21.28L24.8176 21.2439C25.8044 21.2197 26.3457 21.2558 26.3457 21.3403C26.3457 21.4007 26.406 21.4604 26.4782 21.4604C26.6705 21.4604 28.9924 19.6437 28.9924 19.4875C28.9924 19.4153 28.6434 18.9101 28.2104 18.3688C27.7773 17.8157 27.4283 17.3223 27.4283 17.262C27.4283 17.1898 27.5365 16.949 27.6809 16.7207C27.9696 16.2273 28.0418 16.2154 29.5817 16.4201C30.123 16.4923 30.6045 16.5284 30.6406 16.4923C30.737 16.3959 31.0618 13.629 30.9896 13.4604C30.966 13.3764 30.4122 13.2557 29.6905 13.1717L28.4393 13.0274L28.2589 12.3175L28.0784 11.62L29.1368 10.8018C29.7142 10.3445 30.1957 9.9115 30.1957 9.81566C30.1957 9.57489 28.4754 7.39726 28.2825 7.38543C28.1861 7.38543 27.8856 7.57769 27.5969 7.80664C27.32 8.03499 27.0556 8.22785 27.0195 8.22785C26.9834 8.22785 26.9473 6.51935 26.9473 4.43815V0.648449H13.4745H0L0.0242542 10.8977ZM26.2025 5.15929C26.2149 7.14406 26.2025 8.84073 26.1664 8.92474C26.1303 9.04483 25.9617 8.99691 25.5405 8.75613C25.2158 8.5757 24.9389 8.4071 24.9146 8.39527C24.8904 8.37101 24.9507 7.78179 25.0347 7.07189C25.1548 5.97686 25.1548 5.76034 25.0111 5.65208C24.9146 5.57991 24.8425 5.37522 24.8306 5.18296C24.8306 5.00252 24.8182 4.40088 24.8064 3.83532L24.7821 2.81247H13.4745H2.16579V10.9338V19.0545H9.07138H15.977L16.4224 19.6561C16.6632 19.9927 16.9034 20.2577 16.9637 20.2577C17.0116 20.2577 17.3968 19.9809 17.818 19.6561L18.5758 19.0426L19.4176 19.0787L20.2719 19.1148L20.2358 19.6561C20.2115 19.9566 20.1518 20.2335 20.1033 20.2938C20.0553 20.3418 15.7119 20.366 10.4545 20.3542L0.902168 20.3181L0.866081 10.8983L0.841825 1.49028L13.4982 1.51453L26.1664 1.55062L26.2025 5.15929ZM24.0373 4.59373L24.0734 5.48407L23.0505 5.39947C21.8597 5.30305 22.004 5.13504 21.7757 6.96363C21.7035 7.55285 21.6313 8.04623 21.6195 8.05865C21.4994 8.10657 20.573 8.34735 20.4884 8.34735C20.4162 8.34735 19.995 7.85396 19.5383 7.26474C19.0331 6.60335 18.648 6.20581 18.5515 6.24189C18.2628 6.35015 16.1337 8.04623 16.1213 8.16691C16.1213 8.22725 16.4218 8.6603 16.7951 9.12942C17.8901 10.5007 17.8541 10.4049 17.5411 11.0544L17.2642 11.62L16.5425 11.5478C16.1456 11.4999 15.4357 11.4396 14.9665 11.3916L14.1123 11.3195L13.9437 12.7511C13.8472 13.545 13.7751 14.2307 13.7751 14.291C13.7751 14.4478 14.256 14.5554 15.7238 14.7241C16.891 14.8684 16.9507 14.8802 17.0229 15.1932C17.059 15.3618 17.1193 15.6026 17.1554 15.7108C17.2033 15.8552 16.9146 16.1557 16.1207 16.7698C15.0381 17.6358 14.918 17.8044 15.1825 18.0689C15.2907 18.1771 13.9555 18.2132 9.17904 18.2132C3.68085 18.2132 3.01945 18.189 2.95911 18.021C2.86268 17.7684 2.86268 4.0897 2.95911 3.84893C3.03129 3.66849 4.02988 3.65666 13.5219 3.68033L24.0006 3.71641L24.0373 4.59373ZM24.1337 6.43416C24.2177 6.50633 24.2302 6.77077 24.158 7.28841C24.1101 7.69719 24.0497 8.04623 24.0255 8.05806C24.0136 8.06989 23.6646 8.05806 23.2552 8.02198L22.5092 7.9498L22.5814 7.21564C22.6175 6.81869 22.7015 6.42173 22.7619 6.33714C22.8944 6.18155 23.893 6.25373 24.1337 6.43416ZM19.1047 8.05865L19.6341 8.73247L19.0449 9.26194C18.732 9.55063 18.4433 9.77899 18.4072 9.77899C18.2871 9.77899 17.3246 8.47986 17.3246 8.32309C17.3364 8.15449 18.2628 7.38484 18.4675 7.38484C18.5391 7.38484 18.8278 7.68536 19.1047 8.05865ZM28.7292 9.117C28.9339 9.40569 29.1143 9.6583 29.1143 9.69439C29.1143 9.73047 28.8014 10.0073 28.4168 10.3079L27.7193 10.8492L27.2141 10.2114L26.7207 9.56187L27.3946 9.02057C27.7673 8.73188 28.1281 8.51536 28.2009 8.53961C28.2719 8.5757 28.5127 8.82831 28.7292 9.117ZM24.2059 9.08091C26.0103 9.68256 27.2254 11.1018 27.5744 13.0268C27.9471 15.0116 26.7923 17.2614 24.9276 18.2002C22.3531 19.4993 19.3934 18.4646 18.1185 15.8061C17.7813 15.0843 17.7452 14.9281 17.7452 13.8213C17.7576 12.8469 17.8055 12.4861 18.0339 11.9205C18.3344 11.1627 19.333 9.98367 20.0554 9.53821C21.1983 8.8283 22.9062 8.63604 24.2059 9.08091ZM16.3976 12.3897C16.975 12.4618 16.9874 12.4737 16.9152 12.8345C16.8791 13.0268 16.843 13.3758 16.843 13.6048V14.026L16.0367 13.9296C14.7258 13.797 14.6536 13.7491 14.7376 13.0753C14.8577 12.1731 14.8701 12.1731 15.3753 12.2453C15.6161 12.2814 16.0852 12.3417 16.3976 12.3897ZM30.0046 14.0982C30.1129 14.1585 30.0407 15.3973 29.9206 15.518C29.8845 15.5659 29.4876 15.554 29.0546 15.5061C28.2725 15.4221 28.2606 15.4221 28.321 15.1092C28.3452 14.9287 28.405 14.5797 28.4535 14.3271L28.5257 13.8698L29.2101 13.9538C29.5834 13.9893 29.9443 14.0621 30.0046 14.0982ZM18.0942 17.382C18.3469 17.7187 18.503 18.0316 18.4433 18.0795C17.902 18.5605 17.2163 19.0539 17.1199 19.0539C17.0116 19.0539 16.4224 18.3801 16.2059 18.0074C16.1219 17.8748 17.337 16.768 17.5535 16.768C17.6009 16.7686 17.8416 17.0454 18.0942 17.382ZM27.3455 18.5735C27.5862 18.8983 27.7903 19.2473 27.7903 19.3432C27.7903 19.5236 26.8757 20.2577 26.6592 20.2577C26.587 20.2577 26.2984 19.9448 26.0215 19.5839L25.5044 18.9101L25.9736 18.5611C26.238 18.3806 26.4788 18.176 26.5267 18.1038C26.6722 17.8636 26.8888 17.9837 27.3455 18.5735ZM25.1199 19.7644C25.3364 20.0288 25.505 20.2696 25.505 20.3057C25.505 20.3418 25.0477 20.3778 24.4822 20.3778H23.4593V19.9685C23.4593 19.5958 23.4954 19.5473 23.9166 19.439C24.639 19.2467 24.723 19.271 25.1199 19.7644ZM22.3531 19.6082C22.6175 19.6685 22.6299 19.6922 22.5459 20.5346C22.5098 21.0156 22.4258 21.4492 22.3655 21.5214C22.233 21.6539 21.3308 21.6054 21.0539 21.461C20.8853 21.377 20.8735 21.2203 20.9699 20.3903L21.09 19.4159L21.5834 19.4881C21.8597 19.5236 22.1969 19.5721 22.3531 19.6082ZM15.3996 22.6034L15.4599 23.9268L17.8416 23.9628L20.224 23.9871L20.1879 24.7449L20.1518 25.4909H13.4745H6.79732L6.76123 24.7449L6.72515 23.9871L9.10746 23.9628L11.4898 23.9268L11.5259 22.7235C11.5377 22.0621 11.5738 21.448 11.6099 21.364C11.646 21.2439 12.1033 21.2197 13.4988 21.2439L15.3392 21.28L15.3996 22.6034Z" fill="#F05C28"/>
<path d="M21.6429 10.693C20.9212 10.9214 20.0669 11.6916 19.7179 12.4015C19.1163 13.6527 19.5014 15.4452 20.5722 16.2876C22.7498 18.008 25.8538 16.5284 25.8657 13.7491C25.8657 11.5715 23.736 10.0198 21.6429 10.693ZM23.6519 11.5833C25.4445 12.4015 25.529 15.0719 23.7963 15.9143C22.4007 16.5882 20.8366 15.9386 20.3438 14.4945C19.7061 12.5938 21.7991 10.7415 23.6519 11.5833Z" fill="#F05C28"/>
</svg>
