<svg width="30" height="30" viewBox="0 0 30 30" fill="none" xmlns="http://www.w3.org/2000/svg">
<g clip-path="url(#clip0)">
<path d="M10 0C5.85787 0 2.5 3.35787 2.5 7.5V13C2.50219 14.9321 4.06794 16.4978 6 16.5H6.5V15.5H6C4.62 15.4984 3.50162 14.38 3.5 13V7.5C3.5 3.91013 6.41012 1 10 1C13.5899 1 16.5 3.91013 16.5 7.5V13C16.4984 14.38 15.38 15.4984 14 15.5H13.5V16.5H14C15.9321 16.4978 17.4978 14.9321 17.5 13V7.5C17.5 3.35787 14.1421 0 10 0Z" fill="#F05C28"/>
<path d="M4.12033 23.5645L4.48583 22.989L3.64133 22.453L3.27583 23.029C2.1704 24.771 2.25246 27.014 3.48233 28.6705V30H4.48233V28.5C4.4824 28.3864 4.44377 28.2762 4.37283 28.1875C3.30983 26.8586 3.2084 25.0013 4.12033 23.5645Z" fill="#F05C28"/>
<path d="M27.5 0H21C19.62 0.001625 18.5016 1.12 18.5 2.5V7.5C18.5016 8.88 19.62 9.99838 21 10H22V12C21.9999 12.2022 22.1217 12.3846 22.3085 12.462C22.3692 12.4873 22.4342 12.5002 22.5 12.5C22.6326 12.5 22.7597 12.4473 22.8535 12.3535L25.207 10H27.5C28.88 9.99838 29.9984 8.88 30 7.5V2.5C29.9984 1.12 28.88 0.001625 27.5 0ZM29 7.5C29 8.32844 28.3284 9 27.5 9H25C24.8674 9 24.7402 9.05275 24.6465 9.1465L23 10.793V9.5C23 9.22388 22.7761 9 22.5 9H21C20.1716 9 19.5 8.32844 19.5 7.5V2.5C19.5 1.67156 20.1716 1 21 1H27.5C28.3284 1 29 1.67156 29 2.5V7.5Z" fill="#F05C28"/>
<path d="M24.5 2.5H21V3.5H24.5V2.5Z" fill="#F05C28"/>
<path d="M27.5 2.5H25.5V3.5H27.5V2.5Z" fill="#F05C28"/>
<path d="M27.5 4.5H21V5.5H27.5V4.5Z" fill="#F05C28"/>
<path d="M24.5 6.5H21V7.5H24.5V6.5Z" fill="#F05C28"/>
<path d="M16.7237 23.029L16.3582 22.453L15.5137 22.989L15.8792 23.565C16.7912 25.0016 16.6897 26.8588 15.6267 28.1875C15.5557 28.2762 15.5171 28.3864 15.5172 28.5V30H16.5172V28.6705C17.747 27.014 17.8291 24.771 16.7237 23.029Z" fill="#F05C28"/>
<path d="M29.5 17.0001H25C23.124 17.0023 21.5834 18.4831 21.507 20.3576L20 23.0706V21.0001C19.9978 19.068 18.4321 17.5023 16.5 17.5001H14.6725L14.659 17.4896L14.65 17.5001H13.5C12.9477 17.5001 12.5 17.0524 12.5 16.5001V15.3236C14.0449 14.4316 14.9976 12.784 15 11.0001V7.00006C14.9993 6.17163 14.7931 5.35631 14.4 4.62706C14.2741 4.39506 13.9894 4.30088 13.75 4.41206L5.287 8.39406C5.11175 8.47656 4.99994 8.65288 5 8.84656V11.0001C5.00238 12.784 5.95506 14.4316 7.5 15.3236V16.5001C7.5 17.0524 7.05231 17.5001 6.5 17.5001H3.5C1.56794 17.5023 0.0021875 19.068 0 21.0001V30.0001H1V21.0001C1.00162 19.6201 2.12 18.5017 3.5 18.5001H5.091L9.5935 24.7911C9.686 24.9204 9.8345 24.9979 9.9935 25.0001H10C10.1574 25.0001 10.3056 24.9259 10.4 24.8001L15.15 18.5001H16.5C17.88 18.5017 18.9984 19.6201 19 21.0001V25.0001C19.0002 25.2762 19.2243 25.4999 19.5004 25.4996C19.6818 25.4994 19.8489 25.4011 19.937 25.2426L22.294 21.0001H25.1605L20.2855 30.0001H21.423L26.3 21.0001H26.5C28.4321 20.9979 29.9978 19.4321 30 17.5001C30 17.2239 29.7761 17.0001 29.5 17.0001ZM6 11.0001V9.16406L13.7205 5.53106C13.9052 5.99881 14 6.49719 14 7.00006V11.0001C14 13.2092 12.2091 15.0001 10 15.0001C7.79087 15.0001 6 13.2092 6 11.0001ZM10.0105 23.6561L8.4675 21.5001H11.6355L10.0105 23.6561ZM12.392 20.5001H7.75L6.3185 18.5001H6.5C7.60456 18.5001 8.5 17.6046 8.5 16.5001V15.7696C9.47637 16.0769 10.5236 16.0769 11.5 15.7696V16.5001C11.5 17.6046 12.3954 18.5001 13.5 18.5001H13.9L12.392 20.5001ZM26.5 20.0001H22.55C22.7891 18.8368 23.8124 18.0014 25 18.0001H28.95C28.7109 19.1634 27.6876 19.9988 26.5 20.0001Z" fill="#F05C28"/>
</g>
<defs>
<clipPath id="clip0">
<rect width="30" height="30" fill="white"/>
</clipPath>
</defs>
</svg>
