<svg width="26" height="26" viewBox="0 0 26 26" fill="none" xmlns="http://www.w3.org/2000/svg">
<g clip-path="url(#clip0)">
<path d="M17.0391 2.58096H8.91406C7.79403 2.58096 6.88281 3.49217 6.88281 4.61221V21.6747C6.88281 22.7947 7.79403 23.706 8.91406 23.706H17.0391C18.1591 23.706 19.0703 22.7947 19.0703 21.6747V4.61221C19.0703 3.49217 18.1591 2.58096 17.0391 2.58096ZM7.69531 5.83096H18.2578V20.456H7.69531V5.83096ZM8.91406 3.39346H17.0391C17.7111 3.39346 18.2578 3.94017 18.2578 4.61221V5.01846H7.69531V4.61221C7.69531 3.94017 8.24202 3.39346 8.91406 3.39346ZM17.0391 22.8935H8.91406C8.24202 22.8935 7.69531 22.3467 7.69531 21.6747V21.2685H18.2578V21.6747C18.2578 22.3467 17.7111 22.8935 17.0391 22.8935Z" fill="black"/>
<path d="M12.1641 4.61221H13.7891C14.0134 4.61221 14.1953 4.43031 14.1953 4.20596C14.1953 3.9816 14.0134 3.79971 13.7891 3.79971H12.1641C11.9397 3.79971 11.7578 3.9816 11.7578 4.20596C11.7578 4.43031 11.9397 4.61221 12.1641 4.61221Z" fill="black"/>
<path d="M14.1953 21.6747H11.7578C11.5335 21.6747 11.3516 21.8566 11.3516 22.081C11.3516 22.3053 11.5335 22.4872 11.7578 22.4872H14.1953C14.4197 22.4872 14.6016 22.3053 14.6016 22.081C14.6016 21.8566 14.4197 21.6747 14.1953 21.6747Z" fill="black"/>
<path d="M10.9453 4.61221C11.0525 4.61221 11.1571 4.56904 11.2327 4.49338C11.3084 4.41771 11.3516 4.3126 11.3516 4.20596C11.3516 4.09881 11.3084 3.9942 11.2327 3.91853C11.1571 3.84287 11.0525 3.79971 10.9453 3.79971C10.8382 3.79971 10.7336 3.84287 10.6579 3.91853C10.5822 3.9942 10.5391 4.09881 10.5391 4.20596C10.5391 4.3131 10.5822 4.41771 10.6579 4.49338C10.7336 4.56904 10.8382 4.61221 10.9453 4.61221Z" fill="black"/>
</g>
<defs>
<clipPath id="clip0">
<rect width="26" height="26" fill="white"/>
</clipPath>
</defs>
</svg>
