<svg width="23" height="23" viewBox="0 0 23 23" fill="none" xmlns="http://www.w3.org/2000/svg">
<g clip-path="url(#clip0)">
<path d="M20.9403 23H2.0597C0.858209 23 0 22.1222 0 20.8932V7.37408C0 6.32065 0.858209 5.26721 2.0597 5.26721H20.9403C22.1418 5.26721 23 6.14507 23 7.37408V20.7176C23 21.9466 21.9701 23 20.9403 23ZM2.0597 6.14507C1.37313 6.14507 0.858209 6.67179 0.858209 7.37408V20.7176C0.858209 21.4199 1.37313 21.9466 2.0597 21.9466H20.9403C21.6269 21.9466 22.1418 21.4199 22.1418 20.7176V7.37408C22.1418 6.67179 21.6269 6.14507 20.9403 6.14507H2.0597Z" fill="#F05C28"/>
<path d="M22.485 17.7328H16.4775C14.5895 17.7328 12.873 16.1527 12.873 14.0458C12.873 12.1145 14.4178 10.5344 16.4775 10.5344H22.6566C22.8283 10.5344 23.1716 10.7099 23.1716 11.0611V17.3817C22.9999 17.5573 22.8283 17.7328 22.485 17.7328ZM16.4775 11.4122C14.9327 11.4122 13.7313 12.6412 13.7313 14.0458C13.7313 15.4504 14.9327 16.6794 16.3059 16.6794H21.9701V11.4122H16.4775Z" fill="#F05C28"/>
<path d="M2.05985 6.14506C1.88821 6.14506 1.71656 6.14506 1.54492 5.96949C1.54492 5.61835 1.71656 5.44277 1.88821 5.2672L15.7912 2.52724e-05C16.4778 -0.175547 17.336 -0.175547 17.8509 0.35117C18.5375 0.877888 18.8807 1.58018 18.8807 2.28247V5.61835C18.8807 5.79392 18.7091 6.14506 18.3658 6.14506C18.1942 6.14506 17.8509 5.96949 17.8509 5.61835V2.28247C17.8509 1.75575 17.6793 1.40461 17.336 1.05346C16.9927 0.877888 16.4778 0.877888 16.1345 1.05346L2.05985 6.14506C2.23149 6.14506 2.05985 6.14506 2.05985 6.14506Z" fill="#F05C28"/>
</g>
<defs>
<clipPath id="clip0">
<rect width="23" height="23" fill="white"/>
</clipPath>
</defs>
</svg>
