<svg width="18" height="27" viewBox="0 0 18 27" fill="none" xmlns="http://www.w3.org/2000/svg">
<path d="M9.03002 26.6416C8.85157 26.6416 8.67312 26.5425 8.57398 26.3839C7.68171 24.7579 6.80927 23.2113 5.95666 21.7044C4.03333 18.294 2.22897 15.0818 0.642716 11.7705C-0.923709 8.47902 0.464263 3.99786 3.81522 1.61848C6.80927 -0.542788 11.1913 -0.542787 14.2052 1.63831C17.6156 4.07717 18.9243 8.36006 17.3182 11.83C15.7914 15.1611 13.9672 18.3733 12.0439 21.7639C11.1913 23.251 10.3189 24.7976 9.44642 26.4235C9.38693 26.5425 9.20848 26.6416 9.03002 26.6416ZM9.0102 1.00381C7.38429 1.00381 5.75838 1.47969 4.4299 2.43144C1.4755 4.55305 0.226322 8.4592 1.59447 11.3145C3.16089 14.6059 4.96525 17.7983 6.86876 21.1889C7.58257 22.438 8.29638 23.7269 9.03002 25.0554C9.76367 23.7269 10.4775 22.4579 11.1913 21.2087C13.0948 17.8379 14.8992 14.6456 16.4259 11.3541C17.9924 7.92384 16.2277 4.27546 13.65 2.43144C12.2818 1.49951 10.6559 1.00381 9.0102 1.00381ZM9.03002 13.5749C6.59116 13.5749 4.42989 11.4334 4.37041 8.97473C4.31092 6.43673 6.3334 4.31511 8.89123 4.2358C10.1801 4.21597 11.4491 4.69185 12.3612 5.60394C13.2733 6.49621 13.769 7.66607 13.7491 8.89542C13.7293 11.3541 11.5482 13.5352 9.06968 13.5749C9.06968 13.5749 9.04985 13.5749 9.03002 13.5749ZM9.03002 5.26686C8.99037 5.26686 8.95071 5.26686 8.93088 5.26686C6.94807 5.32635 5.36182 6.97208 5.40147 8.9549C5.44113 10.8782 7.14635 12.5438 9.03002 12.5438C9.04985 12.5438 9.04986 12.5438 9.06968 12.5438C10.9732 12.524 12.7181 10.7791 12.7379 8.89542C12.7379 7.94367 12.3612 7.0514 11.6473 6.35741C10.9534 5.66343 10.0016 5.26686 9.03002 5.26686Z" fill="#F05C28"/>
</svg>
