<svg width="44" height="44" viewBox="0 0 44 44" fill="none" xmlns="http://www.w3.org/2000/svg">
<path d="M11.5478 13.9057C9.32418 13.9057 7.51748 12.099 7.51748 9.87534C7.51748 7.65171 9.32418 5.84502 11.5478 5.84502C13.7714 5.84502 15.5781 7.65171 15.5781 9.87534C15.5781 12.099 13.7714 13.9057 11.5478 13.9057ZM11.5478 7.23478C10.0932 7.23478 8.90725 8.42072 8.90725 9.87534C8.90725 11.33 10.0932 12.5159 11.5478 12.5159C13.0024 12.5159 14.1884 11.33 14.1884 9.87534C14.1884 8.42072 13.0024 7.23478 11.5478 7.23478Z" fill="#F6901E"/>
<path d="M1.38516 0H18.6553C18.8221 0 18.9796 0.0555895 19.1093 0.166771L43.0689 20.7909C43.2171 20.9114 43.3005 21.0967 43.3098 21.2912C43.319 21.4858 43.2449 21.6711 43.1059 21.8101L25.8358 38.7745C25.6968 38.9042 25.5208 38.9691 25.3447 38.9691C25.1872 38.9691 25.0204 38.9135 24.8907 38.8115L0.931168 18.2523C0.782925 18.1226 0.690273 17.928 0.690273 17.7242V0.694883C0.690273 0.315014 1.00529 0 1.38516 0ZM2.07078 17.3999L25.3077 37.3291L41.5865 21.3468L18.3866 1.3805H2.07078V17.3999Z" fill="#F6901E"/>
</svg>
