<svg width="28" height="27" viewBox="0 0 28 27" fill="none" xmlns="http://www.w3.org/2000/svg">
<g clip-path="url(#clip0)">
<path d="M7.31641 17.775C7.31641 16.767 7.63373 15.894 8.44573 15.273C9.18305 14.706 9.98573 14.22 10.7697 13.707C11.4044 13.293 11.9364 12.825 12.0764 12.042C12.2537 11.007 11.6564 10.188 10.6204 10.08C9.38841 9.95399 8.52973 10.584 8.46441 11.655C8.45508 11.772 8.45508 11.889 8.44573 12.033C8.09105 12.033 7.75505 12.033 7.41905 12.033C7.14838 10.89 7.90438 9.61199 9.14573 9.33299C9.84573 9.17999 10.6484 9.14399 11.3484 9.297C13.2804 9.702 13.9897 12.15 12.5711 13.5C11.9271 14.112 11.1058 14.544 10.3684 15.066C9.92041 15.39 9.47241 15.705 9.06173 16.074C8.84705 16.263 8.73505 16.551 8.50173 16.911H10.9097H13.2151V17.784C11.2644 17.775 9.30441 17.775 7.31641 17.775Z" fill="#F05C28"/>
<path d="M19.5076 9.36003V14.922H20.8703V15.822C20.4316 15.822 20.0023 15.822 19.5356 15.822V17.766C19.1436 17.766 18.7983 17.766 18.3783 17.766C18.3783 17.145 18.3783 16.515 18.3783 15.84C16.9596 15.84 15.6156 15.84 14.253 15.84C14.169 15.318 14.197 14.895 14.533 14.463C15.6903 12.96 16.8196 11.439 17.921 9.90003C18.2196 9.48603 18.5276 9.26102 19.0503 9.35104C19.1716 9.37801 19.3116 9.36003 19.5076 9.36003ZM18.3316 10.953C18.3036 10.944 18.2756 10.926 18.2476 10.917C17.2769 12.231 16.3063 13.545 15.2983 14.904H18.3316C18.3316 13.572 18.3316 12.267 18.3316 10.953Z" fill="#F05C28"/>
<path d="M14 1.26001C17.388 1.26001 20.58 2.52901 22.9787 4.84202C25.3774 7.15503 26.6933 10.233 26.6933 13.5C26.6933 16.767 25.3773 19.845 22.9786 22.158C20.58 24.471 17.388 25.74 14 25.74C10.612 25.74 7.42 24.471 5.02132 22.158C2.62265 19.845 1.30668 16.767 1.30668 13.5C1.30668 10.233 2.62268 7.155 5.02135 4.84199C7.42003 2.52898 10.612 1.26001 14 1.26001ZM14 0C6.272 0 0 6.048 0 13.5C0 20.952 6.272 27 14 27C21.728 27 28 20.952 28 13.5C28 6.048 21.728 0 14 0Z" fill="#F05C28"/>
</g>
<defs>
<clipPath id="clip0">
<rect width="28" height="27" fill="white"/>
</clipPath>
</defs>
</svg>
