<svg width="32" height="32" viewBox="0 0 32 32" fill="none" xmlns="http://www.w3.org/2000/svg">
<path d="M17.4021 14.5508V12.6018C17.4021 12.343 17.1921 12.1331 16.9333 12.1331H8.23242C7.97339 12.1331 7.76367 12.343 7.76367 12.6018V14.5508C7.76367 14.8096 7.97339 15.0195 8.23242 15.0195H16.9333C17.1921 15.0195 17.4021 14.8098 17.4021 14.5508ZM16.4646 14.082H8.70117V13.0706H16.4646V14.082Z" fill="#F05C28"/>
<path d="M17.8086 27.144H23.8577C24.1165 27.144 24.3264 26.9341 24.3264 26.6753V24.7261C24.3264 24.4673 24.1165 24.2573 23.8577 24.2573H17.8086C17.5496 24.2573 17.3398 24.4673 17.3398 24.7261V26.6753C17.3398 26.9341 17.5496 27.144 17.8086 27.144ZM18.2773 25.1948H23.3889V26.2065H18.2773V25.1948Z" fill="#F05C28"/>
<path d="M23.8574 9.29346H8.23242C7.97339 9.29346 7.76367 9.50342 7.76367 9.76221C7.76367 10.0212 7.97339 10.231 8.23242 10.231H23.8574C24.1162 10.231 24.3262 10.0212 24.3262 9.76221C24.3262 9.50342 24.1162 9.29346 23.8574 9.29346Z" fill="#F05C28"/>
<path d="M13.9021 17.0747C13.9021 16.8159 13.6921 16.606 13.4333 16.606H8.23242C7.97339 16.606 7.76367 16.8159 7.76367 17.0747C7.76367 17.3337 7.97339 17.5435 8.23242 17.5435H13.4333C13.6921 17.5435 13.9021 17.3337 13.9021 17.0747Z" fill="#F05C28"/>
<path d="M12.5828 18.9707H8.23242C7.97339 18.9707 7.76367 19.1804 7.76367 19.4395C7.76367 19.6982 7.97339 19.9082 8.23242 19.9082H12.5828C12.8418 19.9082 13.0515 19.6982 13.0515 19.4395C13.0515 19.1804 12.8418 18.9707 12.5828 18.9707Z" fill="#F05C28"/>
<path d="M12.5828 21.3352H8.23242C7.97339 21.3352 7.76367 21.5452 7.76367 21.804C7.76367 22.063 7.97339 22.2727 8.23242 22.2727H12.5828C12.8418 22.2727 13.0515 22.063 13.0515 21.804C13.0515 21.5452 12.8418 21.3352 12.5828 21.3352Z" fill="#F05C28"/>
<path d="M23.8569 21.3352H21.6816C21.4226 21.3352 21.2129 21.5452 21.2129 21.804C21.2129 22.063 21.4226 22.2727 21.6816 22.2727H23.8569C24.1157 22.2727 24.3257 22.063 24.3257 21.804C24.3257 21.5452 24.1157 21.3352 23.8569 21.3352Z" fill="#F05C28"/>
<path d="M23.8569 18.9707H21.6816C21.4226 18.9707 21.2129 19.1807 21.2129 19.4395C21.2129 19.6982 21.4226 19.9082 21.6816 19.9082H23.8569C24.1157 19.9082 24.3257 19.6982 24.3257 19.4395C24.3257 19.1807 24.1157 18.9707 23.8569 18.9707Z" fill="#F05C28"/>
<path d="M23.8569 16.606H21.6816C21.4226 16.606 21.2129 16.8159 21.2129 17.0747C21.2129 17.3337 21.4226 17.5435 21.6816 17.5435H23.8569C24.1157 17.5435 24.3257 17.3337 24.3257 17.0747C24.3257 16.8159 24.1157 16.606 23.8569 16.606Z" fill="#F05C28"/>
<path d="M25.7458 11.0271C26.0046 11.0271 26.2146 10.8171 26.2146 10.5583V0.46875C26.2146 0.209961 26.0046 0 25.7458 0C24.26 0 24.1355 1.875 23.3201 1.875C22.5051 1.875 22.3821 0 20.8945 0C19.4092 0 19.2842 1.875 18.4695 1.875C17.6519 1.875 17.5342 0 16.0439 0C14.5586 0 14.4338 1.875 13.6189 1.875C12.8052 1.875 12.6799 0 11.1938 0C9.70825 0 9.58374 1.875 8.7688 1.875C7.95117 1.875 7.83423 0 6.34375 0C6.08472 0 5.875 0.209961 5.875 0.46875V31.5312C5.875 31.79 6.08472 32 6.34375 32C7.82935 32 7.9541 30.125 8.7688 30.125C9.58618 30.125 9.70361 32 11.1938 32C12.6792 32 12.804 30.125 13.6189 30.125C14.4365 30.125 14.554 32 16.0439 32C17.5295 32 17.6545 30.125 18.4695 30.125C19.2871 30.125 19.4043 32 20.8945 32C22.3804 32 22.5049 30.125 23.3201 30.125C24.1353 30.125 24.2583 32 25.7458 32C26.0046 32 26.2146 31.79 26.2146 31.5312V12.3083C26.2146 12.0493 26.0046 11.8396 25.7458 11.8396C25.4868 11.8396 25.2771 12.0493 25.2771 12.3083V30.8259C24.8091 30.3086 24.468 29.1875 23.3201 29.1875C21.8345 29.1875 21.71 31.0625 20.8945 31.0625C20.0808 31.0625 19.9556 29.1875 18.4695 29.1875C16.9839 29.1875 16.8589 31.0625 16.0439 31.0625C15.2266 31.0625 15.1091 29.1875 13.6189 29.1875C12.1333 29.1875 12.0085 31.0625 11.1938 31.0625C10.376 31.0625 10.259 29.1875 8.7688 29.1875C7.62158 29.1875 7.28076 30.3079 6.8125 30.8257V1.17432C7.27979 1.69116 7.62134 2.8125 8.76904 2.8125C10.2544 2.8125 10.3792 0.9375 11.1938 0.9375C12.0117 0.9375 12.1287 2.8125 13.6189 2.8125C15.1045 2.8125 15.2292 0.9375 16.0442 0.9375C16.8618 0.9375 16.9792 2.8125 18.4695 2.8125C19.9551 2.8125 20.0796 0.9375 20.8948 0.9375C21.71 0.9375 21.833 2.8125 23.3203 2.8125C24.468 2.8125 24.8093 1.69141 25.2771 1.17407V10.5583C25.2771 10.8171 25.4868 11.0271 25.7458 11.0271Z" fill="#F05C28"/>
<path d="M24.3262 5.32471C24.3262 5.06592 24.1162 4.85596 23.8574 4.85596H12.5828C12.3237 4.85596 12.114 5.06592 12.114 5.32471C12.114 5.58374 12.3237 5.79346 12.5828 5.79346H23.3887V6.80518H8.70117V5.79346H10.8328C11.0918 5.79346 11.3015 5.58374 11.3015 5.32471C11.3015 5.06592 11.0918 4.85596 10.8328 4.85596H8.23242C7.97339 4.85596 7.76367 5.06592 7.76367 5.32471V7.27393C7.76367 7.53271 7.97339 7.74268 8.23242 7.74268H23.8574C24.1162 7.74268 24.3262 7.53271 24.3262 7.27393V5.32471Z" fill="#F05C28"/>
</svg>
