<svg width="35" height="35" viewBox="0 0 35 35" fill="none" xmlns="http://www.w3.org/2000/svg">
<g clip-path="url(#clip0)">
<path d="M34.6454 7.57026L21.0141 0.0851689C20.8093 -0.0272503 20.5609 -0.0272503 20.3561 0.0851689L15.2182 2.90633C15.1098 2.9349 15.0086 2.98938 14.9247 3.06762L6.72509 7.57026C6.50639 7.69015 6.37048 7.9198 6.37048 8.16947V17.2223C4.98727 17.6549 3.71968 18.4178 2.66572 19.472C-0.0814763 22.2189 -0.781893 26.4086 0.922819 29.8973C1.08838 30.2365 1.49773 30.3772 1.83686 30.2114C2.17625 30.0455 2.31671 29.6362 2.15115 29.2971C0.702788 26.3328 1.298 22.773 3.63236 20.4386C5.09221 18.9788 7.03298 18.1748 9.09738 18.1748C11.1618 18.1748 13.1025 18.9788 14.5624 20.4386C16.022 21.8982 16.826 23.839 16.826 25.9034C16.826 27.9678 16.022 29.9086 14.5621 31.3684C12.2278 33.7028 8.66799 34.298 5.70371 32.8496C5.36458 32.6838 4.95522 32.8245 4.78967 33.1636C4.62384 33.503 4.7643 33.9124 5.10369 34.078C6.37448 34.6991 7.73793 35.0008 9.0915 35.0008C11.4528 35.0005 13.7827 34.0814 15.529 32.3351C16.3299 31.5342 16.9627 30.6103 17.4105 29.606L20.3561 31.2234C20.4587 31.2798 20.5719 31.3078 20.6851 31.3078C20.7983 31.3078 20.9118 31.2798 21.0141 31.2234L34.6454 23.7386C34.8641 23.6184 35 23.3888 35 23.1394V18.3887C35 18.0111 34.694 17.7051 34.3164 17.7051C33.9388 17.7051 33.6328 18.0111 33.6328 18.3887V22.7348L21.3708 29.468V16.0578L25.4176 13.8356V17.3582C25.4176 17.6001 25.5453 17.8239 25.7533 17.9467C25.8606 18.01 25.9808 18.0418 26.1012 18.0418C26.2145 18.0418 26.3279 18.0138 26.4308 17.9571L29.3518 16.3494C29.5702 16.2292 29.7056 15.9998 29.7056 15.7507V11.4809L33.6328 9.32464V18.7395C33.6328 19.1171 33.9388 20.1333 34.3164 20.1333C34.694 20.1333 35 19.5817 35 19.2041V8.16947C35 7.92006 34.8641 7.69015 34.6454 7.57026ZM20.6851 1.46411L32.8961 8.16947L29.0442 10.2846L16.8332 3.57924L20.6851 1.46411ZM20.6851 14.8746L8.47413 8.16947L12.4673 5.97663L24.6785 12.6817L20.6851 14.8746ZM26.0986 11.902L13.8876 5.1969L15.4129 4.35923L27.6241 11.0643L26.0986 11.902ZM15.529 19.472C13.811 17.7539 11.5268 16.8079 9.09738 16.8079C8.63782 16.8079 8.18387 16.8418 7.73766 16.9083V9.32464L20.0039 16.0602V29.4704L17.8749 28.3013C18.0845 27.5296 18.1929 26.7248 18.1929 25.9034C18.1929 23.474 17.2468 21.1898 15.529 19.472ZM28.3387 15.3467L26.7848 16.202V13.0849L28.3387 12.2318V15.3467Z" fill="#F05C28"/>
<path d="M34.3164 14.9667C34.1367 14.9667 33.9602 15.0398 33.8331 15.1669C33.706 15.2941 33.6328 15.4703 33.6328 15.6503C33.6328 15.83 33.706 16.0062 33.8331 16.1333C33.9602 16.2607 34.1367 16.3336 34.3164 16.3336C34.4961 16.3336 34.6726 16.2607 34.7997 16.1333C34.9268 16.0062 35 15.83 35 15.6503C35 15.4703 34.9268 15.2941 34.7997 15.1669C34.6726 15.0398 34.4961 14.9667 34.3164 14.9667Z" fill="#F05C28"/>
<path d="M6.79863 26.5861C6.97353 26.5861 7.1487 26.5194 7.28195 26.3861C7.54898 26.1191 7.54898 25.6862 7.28195 25.4192L6.80851 24.9455H10.8487C11.8287 24.9455 12.626 25.7428 12.626 26.7228C12.626 27.7028 11.8287 28.5002 10.8487 28.5002H8.45474C8.07716 28.5002 7.77115 28.8062 7.77115 29.1838C7.77115 29.5611 8.07716 29.8671 8.45474 29.8671H10.8487C12.5825 29.8671 13.9932 28.4566 13.9932 26.7228C13.9932 24.989 12.5825 23.5786 10.8487 23.5786H6.80851L7.28195 23.1049C7.54898 22.8378 7.54898 22.405 7.28195 22.1379C7.01519 21.8712 6.58234 21.8712 6.31531 22.1379L4.67468 23.7786C4.40792 24.0456 4.40792 24.4784 4.67468 24.7455L6.31531 26.3858C6.44882 26.5194 6.62372 26.5861 6.79863 26.5861Z" fill="#F05C28"/>
<path d="M3.14886 32.5356C2.95447 32.5356 2.7614 32.4528 2.62656 32.2923L2.62522 32.2907C2.38222 32.0018 2.41961 31.5708 2.70853 31.3278C2.99746 31.0846 3.42871 31.122 3.67171 31.4109C3.91444 31.7001 3.87785 32.1319 3.58893 32.3749C3.46049 32.4827 3.30427 32.5356 3.14886 32.5356Z" fill="#F05C28"/>
</g>
<defs>
<clipPath id="clip0">
<rect width="35" height="35" fill="white"/>
</clipPath>
</defs>
</svg>
