<svg width="36" height="25" viewBox="0 0 36 25" fill="none" xmlns="http://www.w3.org/2000/svg">
<path d="M4.7414 3.22369C4.69464 3.17679 4.64787 3.08299 4.64787 3.03609C4.64787 2.98919 4.6011 2.94229 4.6011 2.89539C4.6011 2.84849 4.6011 2.7547 4.6011 2.7078C4.6011 2.6609 4.74141 2.6609 4.78817 2.6609C4.83494 2.6609 4.92847 2.6609 4.97524 2.6609C5.02201 2.6609 5.06878 2.7078 5.11554 2.7078C5.16231 2.7078 5.16231 2.7547 5.25585 2.7547C5.30262 2.7547 5.39615 2.7547 5.44292 2.7547C5.53645 2.7547 5.58322 2.7547 5.67675 2.7547C5.72352 2.7547 5.77029 2.614 5.77029 2.614C5.81706 2.5671 5.86383 2.5671 5.86383 2.4733C5.86383 2.3795 5.86382 2.3795 5.91059 2.2857C5.95736 2.23881 6.00413 2.1919 6.0509 2.14501C6.09766 2.09811 6.14443 2.05121 6.23796 2.05121C6.28473 2.05121 6.37827 2.05121 6.42504 2.05121C6.4718 2.05121 6.56534 2.05121 6.6121 2.05121C6.65887 2.05121 6.75241 2.05121 6.79918 2.05121C6.84595 2.05121 6.93948 2.05121 6.98625 2.05121C7.03301 2.05121 7.12655 2.05121 7.17331 2.05121C7.22008 2.05121 7.31362 2.05121 7.36039 2.05121C7.40716 2.05121 7.50069 2.05121 7.54746 2.05121C7.64099 2.05121 7.54745 1.95741 7.64099 2.00431C7.68776 2.00431 7.68776 2.05121 7.73453 2.09811C7.7813 2.14501 7.82806 2.14501 7.9216 2.14501C7.96836 2.14501 8.0619 2.14501 8.10866 2.14501C8.15543 2.14501 8.2022 2.1919 8.24897 2.1919C8.29574 2.1919 8.38928 2.1919 8.43604 2.1919C8.48281 2.1919 8.52958 2.1919 8.62311 2.1919C8.66988 2.1919 8.76341 2.19191 8.81018 2.23881C8.85694 2.23881 8.95048 2.23881 8.99725 2.23881C9.04402 2.23881 9.09079 2.2857 9.13756 2.2857C9.18432 2.2857 9.18432 2.4264 9.23109 2.4264C9.27786 2.4733 9.32463 2.4733 9.37139 2.4733C9.41816 2.4733 9.51169 2.4733 9.55846 2.4733C9.55846 2.4733 9.652 2.5671 9.69877 2.5671C9.74553 2.614 9.74553 2.614 9.83907 2.614C9.88584 2.614 9.97937 2.614 10.0261 2.614C10.1197 2.614 10.1664 2.614 10.2132 2.6609L10.3535 2.7078C10.4003 2.7078 10.3535 2.80159 10.447 2.80159C10.4938 2.80159 10.5873 2.80159 10.6341 2.80159C10.6809 2.80159 10.7277 2.7078 10.7744 2.7078C10.868 2.7078 10.8679 2.7078 10.9147 2.7547C10.9615 2.80159 10.9615 2.84849 10.9615 2.94229C10.9615 2.98919 11.0083 3.08299 11.0083 3.12989C11.0083 3.17679 11.1018 3.17679 11.1018 3.27059C11.1018 3.36438 11.1953 3.31748 11.2421 3.31748C11.3356 3.31748 11.3356 3.31748 11.3824 3.27059C11.4292 3.22369 11.4759 3.22369 11.5227 3.17679C11.5695 3.17679 11.663 3.17679 11.7098 3.22369C11.8033 3.22369 11.8033 3.27058 11.8033 3.36438C11.8033 3.41128 11.8033 3.50508 11.8033 3.55198C11.8033 3.64578 11.8033 3.64578 11.8968 3.64578C11.9436 3.64578 11.9904 3.59888 12.0371 3.55198C12.0839 3.50508 12.0839 3.45818 12.0839 3.36438C12.0839 3.27058 12.1307 3.27059 12.1774 3.27059C12.2242 3.27059 12.271 3.36438 12.271 3.36438H12.458C12.5516 3.36438 12.5516 3.31748 12.5984 3.27059C12.6451 3.22369 12.6919 3.22369 12.7387 3.22369C12.7854 3.17679 12.8322 3.27059 12.879 3.27059C12.9257 3.31748 12.9257 3.31748 12.9725 3.36438C13.0193 3.45818 12.9257 3.45818 13.066 3.45818C13.1128 3.45818 13.1596 3.41128 13.2063 3.36438C13.2531 3.31748 13.3466 3.36438 13.3934 3.36438C13.4402 3.36438 13.4402 3.45818 13.4869 3.45818C13.5337 3.45818 13.5337 3.59888 13.5337 3.64578C13.5337 3.73958 13.5337 3.73958 13.6272 3.73958C13.6272 3.73958 13.674 3.83337 13.7208 3.83337C13.8143 3.83337 13.8143 3.73958 13.8143 3.69268C13.8143 3.59888 13.8143 3.59888 13.8611 3.55198C13.9078 3.50508 13.9078 3.45818 14.0014 3.45818C14.0481 3.45818 14.0949 3.45818 14.1417 3.41128C14.1884 3.36439 14.2352 3.36438 14.282 3.31748C14.3288 3.27058 14.3755 3.27059 14.4223 3.27059C14.5158 3.27059 14.5158 3.27058 14.5158 3.36438C14.5158 3.45818 14.5158 3.45818 14.5626 3.50508C14.6094 3.55198 14.6094 3.55198 14.6561 3.64578C14.6561 3.69268 14.6561 3.78647 14.6561 3.83337C14.6561 3.92717 14.7497 3.88028 14.7964 3.88028C14.8432 3.88028 14.9367 3.88028 14.9835 3.88028C15.0303 3.88028 15.077 3.78648 15.077 3.78648C15.077 3.73958 15.1706 3.73958 15.2173 3.69268C15.2641 3.69268 15.2641 3.64578 15.3109 3.59888C15.3576 3.59888 15.4512 3.59888 15.4512 3.64578C15.4979 3.69268 15.4044 3.73958 15.5447 3.73958C15.5915 3.73958 15.685 3.73958 15.7318 3.73958C15.7785 3.73958 15.8253 3.69268 15.8721 3.69268C15.9188 3.69268 16.0124 3.69268 16.0591 3.69268C16.1059 3.69268 16.1995 3.69268 16.2462 3.69268C16.3398 3.69268 16.3865 3.69268 16.4333 3.73958C16.4801 3.73958 16.4801 3.88028 16.5268 3.88028C16.5736 3.92717 16.5736 3.97407 16.6204 4.02097C16.6671 4.06787 16.7139 4.16167 16.7607 4.20857C16.8074 4.25547 16.901 4.25547 16.9477 4.25547C16.9945 4.25547 16.9945 4.16167 17.0413 4.16167C17.088 4.11477 17.1348 4.11477 17.1348 4.06787C17.1348 4.02097 17.1348 3.92717 17.1348 3.88028C17.1348 3.78648 17.088 3.78648 17.0413 3.73958C16.9945 3.73958 16.9945 3.64578 16.9945 3.59888C16.9945 3.55198 16.9477 3.50508 16.901 3.45818C16.8542 3.41128 16.901 3.31748 16.901 3.27059C16.901 3.17679 16.9477 3.17679 16.9477 3.12989C16.9477 3.03609 16.9477 3.03609 16.9945 2.98919C17.0413 2.94229 17.088 2.94229 17.088 2.84849C17.088 2.75469 17.1348 2.7547 17.1816 2.7078C17.2283 2.6609 17.2283 2.614 17.2751 2.5671C17.3219 2.5202 17.3219 2.4733 17.3219 2.4264C17.3219 2.3795 17.4622 2.3326 17.4622 2.3326C17.5089 2.3326 17.4622 2.2388 17.5557 2.1919C17.6492 2.1919 17.6025 2.09811 17.6025 2.05121C17.6025 2.00431 17.6492 1.95741 17.7428 1.95741C17.8363 1.95741 17.8831 1.91051 17.9766 1.91051C18.0702 1.91051 18.0702 1.95741 18.1169 1.95741C18.2105 2.00431 18.2105 2.00431 18.2572 1.91051C18.304 1.86361 18.3975 1.81671 18.4443 1.81671C18.4911 1.81671 18.6314 1.81671 18.7249 1.81671C18.8184 1.81671 18.912 1.81671 19.0055 1.81671C19.099 1.81671 19.099 1.86361 19.1926 1.86361C19.2393 1.86361 19.3329 1.91051 19.3796 1.95741C19.4732 1.95741 19.5199 2.00431 19.5667 2.00431C19.6135 2.00431 19.707 2.00431 19.7538 2.00431C19.8006 2.00431 19.8006 1.91051 19.8473 1.86361C19.8941 1.81671 19.9409 1.76981 20.0344 1.76981C20.0344 1.76981 20.0344 1.62912 20.0344 1.58222C20.0344 1.48842 20.0812 1.48842 20.0812 1.44152C20.0812 1.34772 20.0812 1.30082 20.1279 1.30082C20.1747 1.25392 20.2682 1.20702 20.315 1.20702C20.3618 1.20702 20.4553 1.25392 20.5021 1.25392C20.5488 1.25392 20.5488 1.34772 20.5956 1.34772C20.5956 1.39462 20.7359 1.39462 20.7827 1.39462C20.8294 1.39462 20.923 1.39462 20.9697 1.39462C21.0165 1.39462 21.0633 1.44152 21.11 1.44152C21.2036 1.44152 21.2036 1.39462 21.2971 1.39462C21.3439 1.39462 21.3906 1.30082 21.4374 1.25392C21.4374 1.25392 21.4374 1.25392 21.4842 1.25392C21.531 1.20702 21.5777 1.16012 21.6245 1.16012C21.6713 1.11323 21.718 1.11323 21.7648 1.11323C21.8583 1.16013 21.8583 1.16012 21.9519 1.16012C21.9986 1.16012 22.0454 1.11323 22.1389 1.11323C22.1857 1.11323 22.1857 1.20702 22.1857 1.25392C22.1857 1.34772 22.326 1.25392 22.326 1.20702C22.3728 1.16012 22.3728 1.11323 22.4663 1.06633C22.5131 1.06633 22.6066 1.06632 22.6534 1.01943C22.7001 0.972527 22.7937 1.01943 22.7937 1.06633C22.8404 1.06633 22.8404 1.20702 22.8404 1.20702C22.8404 1.25392 22.934 1.30082 22.9807 1.30082C23.0275 1.34772 23.0275 1.39462 23.0743 1.44152C23.121 1.48842 23.1678 1.48842 23.1678 1.58222C23.1678 1.62912 23.2146 1.72292 23.2146 1.76981C23.2146 1.81671 23.2146 1.91051 23.2614 1.95741C23.2614 2.00431 23.3081 2.05121 23.3549 2.09811C23.4017 2.14501 23.4484 2.19191 23.4952 2.23881C23.542 2.2857 23.6823 2.3795 23.729 2.3795C23.8226 2.3795 23.8226 2.4264 23.8693 2.4733C23.9161 2.5202 23.9161 2.5671 23.9161 2.6609C23.9161 2.75469 23.9161 2.75469 23.8226 2.80159C23.7758 2.80159 23.6823 2.84849 23.6355 2.84849C23.542 2.84849 23.542 2.89539 23.4952 2.94229C23.4484 2.98919 23.4484 2.98919 23.4484 3.08299C23.4484 3.12989 23.4952 3.17679 23.542 3.17679C23.542 3.17679 23.5887 3.31748 23.5887 3.36438C23.6355 3.45818 23.729 3.36438 23.729 3.45818C23.729 3.55198 23.729 3.55198 23.6823 3.59888C23.6355 3.64578 23.6355 3.69268 23.6355 3.73958C23.6355 3.78648 23.729 3.73958 23.7758 3.83337C23.7758 3.88027 23.7758 3.97407 23.7758 4.02097C23.7758 4.06787 23.729 4.11477 23.729 4.16167C23.729 4.20857 23.8693 4.20857 23.8693 4.20857M23.8693 4.20857C23.9161 4.20857 23.9629 4.20857 23.9629 4.16167M23.8693 4.20857C23.7758 4.20857 23.6823 4.20857 23.6355 4.20857M23.8693 4.20857C23.9161 4.20857 23.9629 4.16167 24.0096 4.11477C24.0564 4.06787 24.1032 4.16167 24.1499 4.16167C24.1967 4.16167 24.2902 4.16167 24.337 4.16167C24.3838 4.16167 24.3838 4.25547 24.4305 4.25547C24.4773 4.30237 24.5708 4.25547 24.6176 4.25547C24.6644 4.25547 24.7579 4.25547 24.8047 4.25547C24.8514 4.25547 24.8982 4.20857 24.945 4.16167C24.945 4.11477 25.1788 4.16167 25.1788 4.16167C25.2724 4.16167 25.2724 4.16167 25.2724 4.25547C25.2724 4.30237 25.2724 4.39616 25.2724 4.44306C25.2724 4.48996 25.3191 4.53686 25.3191 4.58376C25.3191 4.63066 25.4594 4.58376 25.5062 4.58376C25.553 4.58376 25.6465 4.48996 25.6933 4.48996C25.6933 4.48996 25.6933 4.63066 25.6933 4.67756C25.6933 4.77136 25.6465 4.77136 25.6465 4.86516C25.6465 4.95895 25.6465 5.00585 25.6933 5.05275C25.74 5.09965 25.7868 5.05275 25.7868 5.14655C25.7868 5.24035 25.8803 5.24035 25.8803 5.28725C25.8803 5.38105 25.9271 5.42794 25.9271 5.47484C25.9739 5.52174 25.9271 5.61554 25.8803 5.61554C25.8336 5.66244 25.8336 5.70934 25.7868 5.75624C25.7868 5.80314 25.8336 5.89694 25.8803 5.94383C25.9271 5.99073 25.8803 6.08453 25.9271 6.13143C25.9739 6.17833 26.0206 6.22523 26.0674 6.22523C26.1142 6.22523 26.1609 6.17833 26.2077 6.22523C26.2545 6.27213 26.3012 6.31903 26.3012 6.36593C26.3012 6.41283 26.3012 6.50663 26.348 6.55352C26.348 6.60042 26.4883 6.55352 26.5351 6.50662C26.5818 6.50662 26.5818 6.36593 26.6286 6.31903C26.6754 6.27213 26.7689 6.22523 26.8157 6.22523C26.8624 6.22523 26.956 6.22523 27.0028 6.22523C27.0963 6.22523 27.0963 6.17833 27.1431 6.17833C27.2366 6.13143 27.2834 6.22523 27.3301 6.27213C27.4237 6.31903 27.4237 6.36593 27.4237 6.45973C27.4237 6.50663 27.5172 6.55352 27.564 6.55352C27.6107 6.55352 27.7043 6.50662 27.751 6.50662C27.8446 6.50662 27.8913 6.55353 27.9381 6.60043C27.9849 6.64733 28.0316 6.69422 28.0784 6.74112C28.1252 6.78802 28.2187 6.74112 28.2187 6.69422C28.2187 6.60043 28.3122 6.60042 28.359 6.55352C28.4058 6.50663 28.4525 6.50663 28.4993 6.45973C28.5461 6.41283 28.5929 6.36593 28.6396 6.36593C28.7332 6.31903 28.7799 6.31903 28.8735 6.31903C28.967 6.31903 29.0138 6.31903 29.0605 6.27213C29.1073 6.27213 29.2008 6.17833 29.2008 6.17833C29.2476 6.13143 29.2476 6.13143 29.2944 6.08453C29.3411 6.03763 29.3879 6.03763 29.4347 6.03763C29.4814 6.03763 29.575 6.03763 29.6217 6.03763M29.5282 6.13143C29.575 6.13143 29.6217 6.17833 29.6685 6.22523C29.6685 6.27213 29.7153 6.31903 29.762 6.36593C29.762 6.45973 29.8088 6.41283 29.9023 6.45973C29.9959 6.45973 29.9959 6.41282 30.0426 6.50662C30.0426 6.55352 30.0426 6.64732 30.0426 6.69422C30.0426 6.78802 30.0426 6.83492 30.0894 6.88182C30.1362 6.92872 30.1362 6.92872 30.2297 6.92872C30.3232 6.92872 30.3232 6.92872 30.37 7.02252C30.37 7.06941 30.5103 7.11632 30.5571 7.16321C30.6039 7.21011 30.6506 7.21011 30.6974 7.25701C30.7442 7.25701 30.7442 7.35081 30.7909 7.39771C30.7909 7.44461 30.8845 7.49151 30.9312 7.53841C30.978 7.53841 31.0715 7.53841 31.1183 7.53841C31.1651 7.53841 31.1651 7.39771 31.1651 7.35081C31.1651 7.25701 31.2118 7.25701 31.2118 7.16321C31.2118 7.06942 31.2586 7.06941 31.3521 7.02252C31.3989 7.02252 31.4457 6.97562 31.5392 7.02252C31.6327 7.06941 31.6327 7.06941 31.586 7.11631C31.5392 7.16321 31.586 7.21011 31.6327 7.21011C31.6795 7.21011 31.773 7.21011 31.8198 7.21011C31.8666 7.21011 31.9601 7.21011 32.0069 7.21011C32.1004 7.21011 32.1472 7.21011 32.1939 7.25701C32.2407 7.30391 32.2875 7.30391 32.3343 7.35081C32.381 7.39771 32.4278 7.39771 32.4746 7.44461C32.4746 7.4915 32.6149 7.49151 32.6616 7.49151C32.6616 7.49151 32.7552 7.53841 32.8019 7.53841C32.8955 7.53841 32.8955 7.53841 32.9422 7.49151C32.989 7.44461 32.9422 7.39771 32.989 7.35081C33.0825 7.30391 33.1293 7.35081 33.1761 7.39771C33.2228 7.44461 33.1761 7.5384 33.2228 7.5853C33.2696 7.6322 33.3164 7.6791 33.4099 7.6791C33.5034 7.6791 33.5034 7.67911 33.5502 7.63221C33.597 7.58531 33.7373 7.63221 33.7373 7.63221C33.7841 7.63221 33.8776 7.6322 33.8776 7.726C33.8776 7.8198 33.8776 7.8667 33.9244 7.9136C33.9711 7.9605 34.0647 8.0074 34.1114 8.0074C34.1582 8.0074 34.2517 8.0074 34.2985 8.0074C34.392 8.0074 34.3453 8.10119 34.4388 8.0543C34.4856 8.0074 34.5791 8.00739 34.5791 7.9136C34.5791 7.8667 34.6726 7.8667 34.7194 7.8667C34.7662 7.8667 34.8597 7.8667 34.9065 7.8667C34.9065 7.8667 34.9065 7.8667 34.9532 7.8667M34.8597 7.9136L34.7662 8.0543C34.7194 8.10119 34.6726 8.14809 34.6726 8.19499C34.6726 8.24189 34.6726 8.33569 34.6726 8.38259L34.8129 8.47639C34.8597 8.52329 34.8597 8.61709 34.9065 8.66399C34.9065 8.71088 34.9065 8.80468 34.9065 8.85158C34.9065 8.89848 34.9065 8.99228 34.9065 9.03918C34.9065 9.08608 34.8129 9.17988 34.7662 9.17988C34.7194 9.22678 34.6726 9.27367 34.6726 9.32057C34.6259 9.36747 34.6259 9.41437 34.5791 9.46127C34.5791 9.50817 34.4388 9.46127 34.392 9.50817C34.3453 9.50817 34.2985 9.60197 34.2985 9.64887C34.2985 9.69577 34.205 9.69577 34.1582 9.74267C34.1114 9.78957 34.1114 9.83647 34.1582 9.88337C34.205 9.93026 34.1582 9.97716 34.2985 9.97716C34.3453 9.97716 34.4388 9.97716 34.4856 9.97716C34.5323 9.97716 34.5791 10.0241 34.6259 10.0241C34.6726 10.0241 34.7662 10.0241 34.8129 10.0241C34.8597 10.0241 34.8597 9.97716 34.9532 9.97716C35 9.97716 35 10.071 35 10.1179C35 10.1648 34.8597 10.1648 34.8597 10.1648C34.7662 10.1648 34.7662 10.2117 34.7194 10.2586C34.7194 10.2586 34.4856 10.2586 34.4856 10.3055C34.4388 10.3055 34.392 10.3993 34.3453 10.3993C34.2985 10.3993 34.2985 10.54 34.2985 10.5869C34.2985 10.6807 34.2517 10.6806 34.2517 10.7744C34.2517 10.8213 34.2517 10.9151 34.2517 10.962C34.2517 11.0558 34.3453 11.0089 34.392 11.0089C34.4388 11.0089 34.4856 10.962 34.5323 10.962C34.5791 10.962 34.5791 11.1027 34.5791 11.1027C34.5791 11.1496 34.6259 11.1965 34.6259 11.2434C34.6726 11.2903 34.6259 11.3372 34.6726 11.3841C34.7194 11.431 34.7662 11.3841 34.7662 11.5248C34.7662 11.6186 34.7662 11.6186 34.6726 11.6655C34.6259 11.7124 34.6259 11.7593 34.7194 11.7593C34.7662 11.7593 34.8597 11.7593 34.9065 11.7593C35 11.7593 34.9532 11.8531 34.9532 11.9L34.8597 11.9938C34.8129 12.0876 34.8129 12.1345 34.7662 12.2283C34.7662 12.2752 34.7662 12.369 34.7662 12.4159C34.7662 12.5097 34.7662 12.5097 34.6726 12.5097C34.6259 12.5097 34.7194 12.6504 34.7194 12.6504C34.7662 12.6504 34.7662 12.7442 34.7662 12.7911C34.7662 12.838 34.7662 12.9318 34.7662 12.9787C34.7662 13.0256 34.6726 13.0725 34.6726 13.0725C34.6259 13.0725 34.5791 13.0725 34.4856 13.0725C34.392 13.0725 34.3453 13.0725 34.2985 13.0725C34.2049 13.0725 34.205 13.1194 34.1582 13.1663C34.1114 13.2132 34.0646 13.1663 34.0646 13.1194C34.0179 13.0725 33.9711 13.0725 33.9244 13.0725C33.8776 13.0725 33.7841 13.0725 33.7373 13.1194C33.6905 13.1663 33.6905 13.1663 33.597 13.1663C33.5034 13.1663 33.4567 13.1663 33.4567 13.1194C33.3631 13.0725 33.3631 13.0725 33.3164 13.1194C33.2696 13.1663 33.2228 13.1663 33.1293 13.1663C33.0358 13.1663 33.0358 13.1663 32.989 13.2132C32.9422 13.2132 32.9422 13.307 32.9422 13.3539C32.9422 13.4008 32.9422 13.4946 32.9422 13.5415C32.9422 13.5884 32.8955 13.6353 32.8955 13.7291C32.8955 13.776 32.8487 13.776 32.7552 13.776C32.6616 13.776 32.6616 13.776 32.6149 13.8229C32.5681 13.8698 32.5681 13.9167 32.5213 13.9636C32.4746 13.9636 32.4278 13.9636 32.3343 13.9636C32.2407 13.9636 32.2407 13.9636 32.1939 14.0105C32.1472 14.0574 32.1472 14.1043 32.1004 14.1512C32.0537 14.1981 32.1004 14.2919 32.0536 14.3388C32.0536 14.3857 32.0069 14.4326 32.0069 14.5264C32.0069 14.5733 32.0069 14.6671 32.0069 14.714C32.0069 14.7609 32.0069 14.8547 32.0069 14.9016C32.0069 14.9485 32.0069 14.9485 32.1004 14.9485C32.1472 14.9485 32.1472 15.0892 32.1472 15.0892C32.1472 15.1361 32.1004 15.183 32.0536 15.2299C32.0069 15.2768 32.0069 15.3237 32.0069 15.4175C32.0069 15.5113 32.0069 15.5113 32.0069 15.6051C32.0069 15.652 31.9601 15.6989 31.8666 15.6989C31.773 15.6989 31.773 15.6989 31.7263 15.6051C31.6795 15.5582 31.586 15.6051 31.5392 15.652C31.4924 15.6989 31.3521 15.652 31.2586 15.652C31.1651 15.652 31.1651 15.652 31.1183 15.6989C31.0248 15.7927 31.0248 15.7458 30.8845 15.7458C30.7909 15.7458 30.7909 15.7927 30.7442 15.8864C30.7442 15.9333 30.6506 15.9334 30.6506 15.9334M30.6039 15.8396C30.5571 15.8865 30.5571 15.9333 30.5571 16.0271C30.5571 16.074 30.4636 16.1678 30.4168 16.1678C30.37 16.2147 30.37 16.2616 30.2765 16.2616C30.1829 16.2616 30.1362 16.2147 30.0894 16.2147C30.0426 16.2147 29.9959 16.3554 29.9491 16.3554C29.9023 16.4023 29.8556 16.4492 29.8088 16.4492C29.762 16.4492 29.6685 16.4961 29.6685 16.4961C29.6217 16.4961 29.575 16.5899 29.5282 16.5899C29.4814 16.6368 29.4814 16.6837 29.4347 16.7306C29.3411 16.8244 29.4814 16.8244 29.2944 16.7775C29.2008 16.7775 29.2008 16.7306 29.1073 16.7306C29.0605 16.7306 28.967 16.7775 28.9202 16.7775C28.8735 16.7775 28.8267 16.8244 28.7799 16.8713C28.7332 16.9182 28.6864 17.012 28.6396 17.0589C28.5929 17.1058 28.5461 17.1527 28.4993 17.1996C28.4525 17.2465 28.4058 17.1996 28.359 17.2465C28.3122 17.2934 28.1719 17.2465 28.1719 17.1996C28.1252 17.1527 28.0784 17.1527 28.0316 17.1058C27.9849 17.1058 27.8446 17.1058 27.7978 17.1058C27.7043 17.1058 27.7043 17.1527 27.6575 17.1527C27.6107 17.1527 27.5172 17.2465 27.5172 17.2465C27.4704 17.2934 27.4237 17.3403 27.3301 17.3872C27.2834 17.4341 27.2834 17.481 27.1898 17.5279C27.1431 17.5748 27.0963 17.5748 27.0028 17.6686C26.956 17.7155 26.9092 17.7155 26.8625 17.7624C26.8157 17.8093 26.7221 17.8562 26.7221 17.95C26.7221 17.95 26.6286 18.0438 26.6286 18.0907C26.5818 18.1376 26.5818 18.1845 26.4883 18.1376C26.4415 18.0907 26.3948 18.0907 26.3948 17.9969C26.3948 17.95 26.348 17.9031 26.3012 17.9031C26.2545 17.8562 26.2077 17.8093 26.2077 17.7624C26.1609 17.7155 26.2545 17.7155 26.3012 17.8093C26.3012 17.8562 26.3012 17.95 26.348 17.95C26.3948 17.9969 26.348 17.8093 26.3012 17.7624C26.3012 17.7624 26.348 17.8562 26.3948 17.9031M26.3948 17.9031C26.4415 17.9031 26.348 17.7624 26.348 17.7624L26.3012 17.7155C26.2545 17.6686 26.3948 17.8093 26.3948 17.9031ZM26.3948 17.9031C26.3948 17.95 26.3948 18.0438 26.348 18.0438C26.3012 18.0907 26.3012 18.1376 26.2545 18.1845C26.2077 18.2783 26.2077 18.2783 26.1142 18.3252C26.0674 18.3721 26.0206 18.3721 25.9739 18.3721C25.9271 18.3721 25.8336 18.3721 25.7868 18.3721C25.74 18.3721 25.74 18.3721 25.6933 18.419M25.7868 18.5128C25.74 18.5128 25.6933 18.6066 25.6465 18.6535C25.5997 18.6535 25.553 18.7473 25.5062 18.7942C25.4594 18.8411 25.5062 18.9349 25.553 18.9349C25.5997 18.9818 25.6933 18.888 25.6933 18.9818C25.6933 19.0287 25.6933 19.1225 25.6933 19.1694C25.6933 19.2163 25.6933 19.3101 25.6933 19.357C25.6933 19.4039 25.6933 19.4977 25.6933 19.5446C25.6933 19.6384 25.6933 19.6384 25.6465 19.6853M25.6465 19.6853C25.5997 19.7322 25.5997 19.7322 25.5997 19.826C25.5997 19.8729 25.8336 19.7791 25.8803 19.7791C25.9271 19.7322 25.9739 19.6853 25.9739 19.6384C25.9739 19.5915 25.8803 19.5446 25.8336 19.4977C25.7868 19.4508 25.6933 19.4039 25.6933 19.3101C25.6465 19.2632 25.6465 19.2163 25.5997 19.1694C25.5997 19.1225 25.5062 19.1225 25.5062 19.0756C25.4594 19.0287 25.4594 19.0287 25.4127 18.9818C25.4127 18.9818 25.553 18.888 25.5997 18.8411C25.6933 18.7942 25.553 18.7004 25.553 18.7004C25.5062 18.6535 25.4594 18.6535 25.4127 18.6535C25.3659 18.6535 25.2724 18.6535 25.2724 18.7004C25.2256 18.7473 25.2256 18.7942 25.2724 18.8411C25.3191 18.888 25.4127 18.8411 25.4127 18.9349C25.4127 18.9818 25.4127 19.0756 25.3659 19.0756C25.3191 19.1225 25.2724 19.1694 25.2256 19.2163C25.1788 19.2632 25.132 19.2632 25.0853 19.3101C25.0385 19.357 24.9917 19.1694 24.9917 19.1694C24.945 19.0756 24.945 19.0756 24.945 18.9818C24.945 18.9349 25.0385 18.888 25.0853 18.8411C25.132 18.7942 25.1788 18.8411 25.1788 18.7473C25.1788 18.7004 25.0385 18.7004 25.0385 18.7004C24.9918 18.7004 24.8982 18.7004 24.8514 18.7004C24.8047 18.7004 24.7579 18.6535 24.7111 18.6535C24.7111 18.6535 24.8047 18.7942 24.6644 18.7473C24.5708 18.7004 24.5241 18.6535 24.5241 18.6066C24.4773 18.5597 24.4773 18.4659 24.4305 18.5597C24.3838 18.6066 24.3838 18.6066 24.337 18.6535C24.337 18.7004 24.337 18.7942 24.2902 18.8411C24.2902 18.888 24.1967 18.888 24.1499 18.888C24.1032 18.888 24.0564 18.7942 24.0096 18.7473C23.9629 18.7004 23.9629 18.7004 23.9161 18.6535C23.8226 18.6535 23.7758 18.7004 23.7758 18.7004C23.6823 18.7473 23.729 18.5597 23.5887 18.6535C23.542 18.7004 23.4952 18.7004 23.4484 18.7473C23.4017 18.8411 23.4952 18.8411 23.5887 18.8411C23.6823 18.8411 23.729 18.8411 23.729 18.888C23.729 18.9818 23.729 19.0287 23.7758 19.0756C23.8226 19.1225 23.9629 19.1225 24.0096 19.1225C24.1032 19.1225 24.1032 19.0756 24.1967 19.0756C24.2902 19.0756 24.2902 19.1225 24.337 19.1694C24.3838 19.2163 24.2902 19.2632 24.3838 19.3101C24.4773 19.357 24.6176 19.3101 24.7111 19.3101C24.8047 19.3101 24.8514 19.3101 24.8982 19.2632C24.945 19.2163 24.9917 19.3101 24.9917 19.357C24.9917 19.4508 24.945 19.4508 24.8982 19.4508C24.8514 19.4508 24.945 19.5446 24.9917 19.4977C25.0385 19.4508 25.0853 19.4039 25.1788 19.4039C25.2256 19.4039 25.1788 19.4977 25.1788 19.5446C25.1788 19.5446 25.3191 19.5446 25.3659 19.4508C25.4127 19.4039 25.4127 19.3101 25.3191 19.4039C25.2256 19.4977 25.2256 19.5915 25.1788 19.6853C25.0853 19.826 25.2724 19.7322 25.3191 19.7322C25.3659 19.6853 25.4594 19.6384 25.5062 19.6384C25.553 19.5915 25.6465 19.6384 25.6465 19.6853ZM25.6465 19.6853V19.8729C25.6465 19.9667 25.6933 19.9667 25.7868 19.9667C25.8803 19.9667 25.9271 19.9667 25.9739 20.0136C26.0674 20.0136 26.0674 20.1074 26.1142 20.1543C26.1609 20.2012 26.1609 20.295 26.2077 20.3419C26.2545 20.4357 26.3012 20.4826 26.348 20.5295C26.3948 20.5764 26.3948 20.6702 26.3948 20.7171C26.3948 20.764 26.3948 20.8578 26.3948 20.9047C26.3948 20.9985 26.3948 20.9985 26.4415 21.0454C26.4883 21.0923 26.6286 21.0923 26.7221 21.0923C26.8157 21.0923 26.8624 21.0923 26.956 21.1392C27.0028 21.1392 27.0495 21.1861 27.1431 21.1861C27.2366 21.1861 27.3301 21.1861 27.3769 21.1861C27.4704 21.1861 27.4704 21.1392 27.5172 21.0454C27.564 20.9985 27.6107 20.9047 27.7043 20.9047C27.751 20.9047 27.7978 20.8578 27.8446 20.8109C27.8446 20.7171 27.8446 20.6233 27.9381 20.6233C28.0316 20.6233 28.0316 20.7171 28.0784 20.764C28.1252 20.8578 28.1252 20.8578 28.2187 20.8578C28.3122 20.8578 28.359 20.8578 28.359 20.8109C28.359 20.7171 28.3122 20.6702 28.4525 20.6702C28.4993 20.6702 28.6396 20.6233 28.6864 20.5764C28.7331 20.5295 28.8267 20.5295 28.8735 20.4826C28.967 20.4826 29.0138 20.5295 29.1073 20.5295C29.2008 20.5295 29.2476 20.5295 29.3411 20.5764C29.3879 20.5764 29.4347 20.6233 29.5282 20.6233C29.575 20.6233 29.6685 20.6702 29.6685 20.7171C29.6685 20.8109 29.7153 20.8578 29.6217 20.8578C29.5282 20.8578 29.4814 20.9047 29.3879 20.9047C29.3411 20.9047 29.2944 20.9985 29.2944 21.0454C29.2476 21.0923 29.2476 21.1392 29.2476 21.1861C29.2476 21.233 29.2476 21.3268 29.2476 21.3737C29.2476 21.4206 29.2476 21.5143 29.2476 21.5612C29.2476 21.655 29.2476 21.7019 29.2008 21.7488C29.1541 21.7957 29.0138 21.8426 28.967 21.8426C28.8735 21.8426 28.8267 21.8895 28.7799 21.8895C28.6864 21.8895 28.5461 21.8895 28.4525 21.8895C28.4058 21.8895 28.3122 21.8895 28.2655 21.8895C28.2187 21.8895 28.2187 21.9364 28.1252 21.9364C28.0316 21.9364 27.9849 21.9364 27.9381 21.8895C27.8913 21.8426 27.8913 21.8426 27.8446 21.7957C27.8446 21.7488 27.6575 21.7488 27.6107 21.7488C27.5172 21.7488 27.4704 21.7488 27.4237 21.7019C27.3769 21.655 27.3301 21.7957 27.2834 21.7957C27.2366 21.8426 27.2366 21.8895 27.1898 21.9364C27.1898 21.9364 27.1431 21.9364 27.0963 21.9833M26.956 21.9364C26.9092 21.9833 26.8625 22.0771 26.8625 22.124C26.8625 22.2178 26.8625 22.2178 26.7689 22.2178C26.7221 22.2178 26.6754 22.2647 26.6754 22.3116C26.6286 22.3585 26.5818 22.4054 26.5351 22.4054C26.4883 22.4054 26.4415 22.4992 26.4415 22.5461C26.3948 22.593 26.3948 22.6399 26.3948 22.7337C26.3948 22.8275 26.3948 22.8275 26.3012 22.8275C26.2077 22.8275 26.2077 22.7806 26.1609 22.7337C26.1142 22.6868 26.0674 22.6868 25.9739 22.6868C25.8803 22.6868 25.8336 22.7337 25.74 22.7337C25.6465 22.7337 25.5997 22.7337 25.5062 22.7806C25.4127 22.7806 25.3659 22.8744 25.3191 22.9213C25.2724 22.9682 25.2256 23.0151 25.1788 23.0151C25.132 23.062 25.0853 23.062 25.0385 23.1089C24.9918 23.1558 24.945 23.2027 24.8982 23.2965C24.8514 23.3434 24.8514 23.4372 24.8514 23.4841C24.8514 23.531 24.8047 23.5779 24.8047 23.6248C24.8047 23.6717 24.7111 23.6717 24.6644 23.7186C24.6176 23.7655 24.5241 23.8124 24.4773 23.8124C24.4305 23.8593 24.3838 23.9062 24.337 23.9531C24.2902 24 24.2435 24 24.1967 24C24.1499 24 24.0564 24 24.0096 24C23.9629 24 23.8693 24 23.8226 24C23.7758 24 23.6823 24 23.6355 24C23.542 24 23.4952 24 23.4484 23.9062C23.4017 23.8593 23.4017 23.8124 23.3549 23.7655C23.3081 23.7186 23.2146 23.7655 23.1678 23.7655C23.121 23.7655 23.0743 23.7186 23.0275 23.6717C22.9807 23.6248 22.9807 23.5779 22.934 23.531C22.8872 23.4841 22.8872 23.4372 22.934 23.3903C22.934 23.3434 23.0275 23.3434 23.0743 23.2965C23.1678 23.2965 23.1678 23.3434 23.2146 23.2496C23.2146 23.2027 23.2146 23.1089 23.2146 23.062C23.2146 22.9682 23.2146 22.8744 23.2146 22.8275C23.2146 22.7337 23.2613 22.7337 23.3081 22.6868C23.3549 22.6399 23.3081 22.5461 23.3549 22.4992C23.3549 22.4523 23.3549 22.3585 23.3549 22.2647C23.3549 22.1709 23.3549 22.124 23.3081 22.0771C23.3081 22.0302 23.2146 22.0302 23.2146 21.9833C23.1678 21.9364 23.121 21.8895 23.0743 21.8895C23.0275 21.8426 22.9807 21.7957 22.9807 21.7957C22.934 21.7488 22.8872 21.7488 22.8404 21.7488C22.7469 21.7488 22.7001 21.7488 22.6534 21.7957C22.6066 21.8426 22.5131 21.7957 22.4663 21.7957C22.4195 21.7957 22.3728 21.7019 22.326 21.655C22.2792 21.6081 22.2325 21.5612 22.1857 21.5143C22.1389 21.4674 22.1389 21.4206 22.0454 21.3737C21.9986 21.3268 21.9986 21.3267 21.9051 21.2798C21.8583 21.233 21.8116 21.233 21.718 21.233C21.6713 21.233 21.5777 21.2798 21.531 21.2798C21.4374 21.2798 21.3906 21.3268 21.3439 21.3268C21.2503 21.3268 21.2503 21.4205 21.2036 21.4674C21.1568 21.5143 21.11 21.3267 21.11 21.2798C21.11 21.233 21.0633 21.1861 21.0633 21.1392C21.0633 21.0923 21.11 20.9985 21.1568 20.9516C21.2036 20.9047 21.2503 20.8578 21.3439 20.8578C21.4374 20.8578 21.4842 20.8578 21.531 20.764C21.5777 20.7171 21.6245 20.6702 21.6713 20.6233C21.718 20.5764 21.7648 20.5764 21.8583 20.4826C21.9051 20.4357 21.9986 20.3888 22.0922 20.3888C22.1857 20.3419 22.2325 20.295 22.326 20.295C22.3728 20.295 22.5131 20.2481 22.5598 20.1543C22.6066 20.1074 22.7001 20.0605 22.7001 20.0136C22.7469 19.9667 22.8404 19.9667 22.8872 19.9198C22.934 19.8729 22.9807 19.8729 23.0275 19.826C23.0743 19.7791 23.1678 19.7791 23.2146 19.7791C23.3081 19.7791 23.3549 19.7791 23.4017 19.7322C23.4484 19.6853 23.4484 19.6384 23.4484 19.5915C23.4484 19.5446 23.3549 19.4977 23.3081 19.4977C23.2146 19.4977 23.3549 19.357 23.3549 19.2632C23.3549 19.1694 23.3081 19.1694 23.2614 19.1225C23.2146 19.0756 23.2146 19.0287 23.2146 18.9818C23.2146 18.9349 23.121 18.9349 23.0743 18.9818C23.0275 19.0287 23.0275 19.1225 22.9807 19.1694C22.9807 19.2632 22.9807 19.2632 22.8872 19.2632C22.7937 19.2632 22.7469 19.1694 22.7001 19.1225C22.6534 19.0756 22.6066 19.0287 22.5598 19.0287C22.5131 19.0287 22.5131 18.9818 22.4663 18.9349C22.4195 18.888 22.5131 18.7942 22.3728 18.8411C22.326 18.8411 22.326 18.9818 22.2792 18.9818C22.2325 19.0287 22.1857 19.0287 22.1389 19.0287C22.0922 19.0287 22.0922 18.9818 22.0454 18.9818C21.9986 18.9818 21.9986 19.0756 21.9519 19.0756C21.9051 19.0756 21.8116 19.0756 21.7648 19.0756C21.718 19.0756 21.6245 19.0756 21.5777 19.0756C21.5309 19.0756 21.4374 19.1225 21.3907 19.1694C21.3439 19.2163 21.2971 19.2632 21.2036 19.2632C21.1568 19.2632 21.0633 19.2632 21.0165 19.2632C20.923 19.2632 20.8294 19.2632 20.7827 19.2632C20.6891 19.2632 20.6891 19.2163 20.5956 19.1225C20.5488 19.0756 20.4553 19.0287 20.4085 19.0287C20.3618 18.9818 20.3618 18.9818 20.315 18.9349C20.2682 18.888 20.1747 18.888 20.1279 18.8411C20.0812 18.7942 19.9876 18.7473 19.9409 18.7473C19.8941 18.7004 19.8006 18.7004 19.7538 18.6535C19.707 18.6066 19.6603 18.5597 19.6603 18.5597C19.6135 18.5128 19.5667 18.6535 19.5199 18.6535C19.4732 18.7473 19.6135 18.7004 19.6603 18.7004C19.707 18.7004 19.7538 18.5597 19.8005 18.5597C19.8473 18.5128 19.9409 18.5128 19.9409 18.419C19.9409 18.3721 19.9876 18.3252 19.9876 18.2783C19.9876 18.2314 19.8473 18.1845 19.8473 18.1845C19.8006 18.1376 19.707 18.1845 19.6603 18.1376C19.6135 18.0907 19.5667 18.0438 19.5199 18.0438C19.4732 18.0438 19.4264 18.1845 19.3796 18.1845C19.3329 18.2314 19.2861 18.1845 19.2393 18.1376C19.1926 18.0907 19.1458 18.0438 19.099 18.0438C19.0523 17.9969 19.0055 17.95 19.0523 17.9031C19.099 17.8562 19.2861 17.9031 19.3329 17.9031C19.4264 17.9031 19.4732 17.9031 19.5667 17.9031C19.6602 17.9031 19.8006 17.95 19.8473 17.9969C19.8941 17.9969 20.0344 17.9969 20.0812 17.9969C20.1747 17.9969 20.2682 17.9969 20.315 18.0438C20.3618 18.0907 20.4553 18.0907 20.5021 18.0907C20.5956 18.0907 20.5956 18.0907 20.6424 18.0438C20.6891 17.9969 20.6424 17.95 20.6891 17.9031M20.6891 17.9031C20.7359 17.8562 20.8294 17.8093 20.923 17.8093C21.0165 17.8093 20.9697 17.7624 20.8762 17.7624C20.8294 17.7624 20.7359 17.8562 20.6891 17.9031ZM20.6891 17.9031C20.6424 17.95 20.5956 17.95 20.5021 17.95C20.4085 17.95 20.4553 17.8562 20.3618 17.8562C20.2682 17.8562 20.2215 17.8562 20.1747 17.9031C20.1279 17.95 20.0344 17.8093 20.0344 17.8093C20.0344 17.7155 19.9409 17.7624 19.8473 17.7624C19.8006 17.7624 19.7538 17.6686 19.707 17.6217C19.6602 17.5748 19.6602 17.5279 19.6135 17.481C19.5667 17.4341 19.5667 17.3872 19.5199 17.3403C19.4732 17.2934 19.5667 17.481 19.5667 17.5279C19.5667 17.6217 19.5667 17.6686 19.5199 17.7155C19.4732 17.8093 19.4264 17.7624 19.3329 17.7624C19.2861 17.7624 19.1926 17.7624 19.1458 17.7624C19.099 17.7624 19.0523 17.7155 19.0055 17.7155C18.9587 17.7155 18.912 17.7624 18.8652 17.7624C18.8184 17.7624 18.7717 17.6686 18.7717 17.6686M18.7717 17.6686C18.7249 17.6217 18.7249 17.6217 18.7249 17.5279C18.7249 17.481 18.8184 17.3872 18.8652 17.3403C18.912 17.2934 19.0055 17.1996 18.912 17.1996C18.8652 17.1996 18.8184 17.3403 18.8184 17.3403C18.7717 17.3872 18.7717 17.4341 18.7249 17.3872C18.6781 17.3403 18.6781 17.2465 18.8184 17.4341C18.8652 17.481 18.8184 17.5748 18.7717 17.5748C18.7249 17.6217 18.6781 17.6217 18.6314 17.6686M18.7717 17.6686C18.7717 17.7155 18.7717 17.7155 18.7249 17.7624C18.6781 17.8093 18.7249 17.8093 18.6314 17.8093C18.5378 17.8093 18.4911 17.7624 18.4443 17.7624M15.8253 17.2934C15.8253 17.2465 15.7785 17.1527 15.7318 17.1058C15.685 17.0589 15.5915 17.0589 15.5447 17.012C15.4979 17.012 15.4512 16.9182 15.3576 16.9182H15.3109C15.2641 16.9182 15.2173 16.8713 15.1706 16.7775C15.1238 16.7306 15.1238 16.7306 15.077 16.6837C15.0303 16.6368 15.077 16.543 15.077 16.4961C15.1238 16.4023 15.1238 16.4023 15.077 16.3554C15.0303 16.3085 14.9835 16.3085 14.9367 16.2616C14.89 16.2147 14.8432 16.1678 14.89 16.1209C14.9367 16.074 14.9367 16.0272 14.9367 15.9803C14.9367 15.8865 14.9367 15.8865 14.9835 15.8396C15.0303 15.7458 15.0303 15.7458 15.0303 15.652C15.0303 15.6051 14.9367 15.6051 14.89 15.5582C14.7964 15.5113 14.7964 15.6051 14.7964 15.652C14.7964 15.7458 14.7964 15.7458 14.7497 15.652C14.7029 15.6051 14.6561 15.5582 14.6561 15.5113C14.6094 15.4644 14.5626 15.4175 14.5158 15.3706C14.4691 15.3237 14.4223 15.2768 14.3755 15.2299C14.3288 15.183 14.282 15.183 14.2352 15.1361C14.1884 15.0892 14.1417 15.0892 14.1417 14.9954C14.1417 14.9485 14.1417 14.8547 14.1417 14.8078C14.1417 14.7609 14.1417 14.6671 14.1884 14.6202C14.1884 14.5264 14.2352 14.5264 14.2352 14.4795C14.2352 14.4326 14.282 14.4326 14.3287 14.3857C14.3755 14.3388 14.3755 14.3388 14.3755 14.245C14.3755 14.1512 14.3755 14.1512 14.3287 14.1043C14.3287 14.0574 14.3755 14.0574 14.3755 14.0105C14.3755 14.0105 14.3287 13.9167 14.3287 13.8698C14.3287 13.776 14.3287 13.776 14.2352 13.776C14.1884 13.776 14.1884 13.7291 14.1417 13.7291C14.0949 13.776 14.1885 13.8229 14.0481 13.8229C13.9546 13.8229 13.9546 13.776 13.9078 13.7291C13.8611 13.6822 13.8143 13.6353 13.8143 13.5884C13.7675 13.5415 13.7675 13.4946 13.7208 13.4477C13.674 13.4008 13.6272 13.3539 13.6272 13.307C13.5805 13.2601 13.5337 13.2601 13.5337 13.2132C13.4869 13.1663 13.4402 13.1663 13.3934 13.1194C13.3466 13.0725 13.2999 13.0725 13.2531 13.0725C13.2063 13.0725 13.1128 13.0725 13.1128 13.1194C13.066 13.1194 13.066 13.2601 13.066 13.307C13.0193 13.3539 12.9257 13.2601 12.9257 13.2601C12.9257 13.1663 12.9257 13.1194 12.8322 13.1663C12.7387 13.2132 12.7387 13.1663 12.7387 13.0725C12.7387 13.0725 12.8322 12.9787 12.8322 12.9318C12.8322 12.8849 12.7387 12.838 12.6919 12.838C12.6451 12.838 12.5983 12.8849 12.5516 12.9318C12.5048 12.9787 12.5048 12.9787 12.458 12.8849C12.4113 12.838 12.4113 12.838 12.3177 12.838C12.271 12.838 12.271 12.7442 12.2242 12.6973C12.2242 12.6504 12.1307 12.6504 12.1307 12.6035C12.0839 12.5566 12.0371 12.5566 11.9904 12.5097C11.9436 12.4628 11.8968 12.4159 11.8501 12.4159C11.8033 12.369 11.7565 12.3221 11.7565 12.2752C11.7098 12.2283 11.6162 12.2283 11.5695 12.2283C11.5227 12.2283 11.4759 12.2283 11.3824 12.2283C11.3356 12.2283 11.2889 12.2283 11.1953 12.2283H11.1486C11.1018 12.2283 11.1018 12.1814 11.1018 12.1345C11.0083 12.1345 11.0083 12.1814 10.9615 12.2283C10.9147 12.2752 10.8212 12.1814 10.8212 12.1814C10.8212 12.1345 10.7276 12.369 10.7276 12.369C10.7276 12.4628 10.6809 12.4628 10.5873 12.4628C10.4938 12.4628 10.447 12.4628 10.4003 12.4159C10.3535 12.369 10.3535 12.3221 10.26 12.3221C10.1197 12.3221 10.1664 12.369 10.1197 12.4628C10.1197 12.5566 9.97937 12.4159 9.9326 12.4159C9.88583 12.369 9.88583 12.3221 9.7923 12.3221C9.69876 12.3221 9.69877 12.3221 9.69877 12.4159C9.69877 12.4628 9.69877 12.5566 9.69877 12.6035C9.69877 12.6973 9.652 12.6973 9.60523 12.7442C9.55846 12.7911 9.51169 12.838 9.41816 12.838C9.37139 12.838 9.32462 12.7911 9.27785 12.7911C9.18432 12.7911 9.13755 12.838 9.09079 12.838C9.04402 12.8849 8.99725 12.838 8.95048 12.8849C8.90371 12.9318 8.85695 12.9318 8.76341 12.9318C8.71665 12.9318 8.66988 12.9787 8.66988 13.0256C8.66988 13.0725 8.66988 13.1663 8.66988 13.2132C8.66988 13.307 8.66988 13.307 8.57634 13.307C8.52957 13.307 8.52958 13.4008 8.43604 13.4008C8.34251 13.4008 8.29574 13.4477 8.20221 13.4477C8.10867 13.4477 8.0619 13.4477 7.96837 13.4477C7.87483 13.4477 7.82807 13.4946 7.73453 13.4946C7.641 13.4946 7.64099 13.5415 7.54746 13.5415C7.50069 13.5415 7.40716 13.5415 7.36039 13.5415C7.31362 13.5415 7.22008 13.5415 7.17331 13.5415C7.12655 13.5415 7.03301 13.5415 6.98625 13.5415C6.93948 13.5415 6.84595 13.5415 6.79918 13.5415C6.70564 13.5415 6.70564 13.6353 6.65887 13.6353C6.61211 13.6822 6.56534 13.7291 6.51857 13.776C6.4718 13.8229 6.4718 13.8698 6.42504 13.9167C6.37827 13.9636 6.37827 14.0105 6.28473 14.0574C6.23797 14.1043 6.14443 14.0574 6.09767 14.0574C6.00413 14.0574 5.9106 14.0574 5.86383 14.0105C5.81706 14.0105 5.81706 13.8698 5.81706 13.8229C5.81706 13.776 5.72352 13.6822 5.72352 13.6822C5.67676 13.6353 5.62999 13.6353 5.62999 13.5884C5.58322 13.5415 5.53645 13.4477 5.53645 13.4008C5.48968 13.3539 5.48968 13.307 5.44292 13.307C5.39615 13.2601 5.34938 13.2601 5.30261 13.2132C5.25584 13.1663 5.16231 13.2601 5.11554 13.2601C5.06878 13.307 4.97525 13.307 4.92848 13.307C4.88171 13.307 4.78817 13.307 4.7414 13.307C4.69464 13.307 4.6011 13.307 4.55434 13.307C4.50757 13.307 4.4608 13.1663 4.41403 13.1663C4.41403 13.1663 4.27373 13.1663 4.22696 13.1663C4.13343 13.1663 4.13343 13.1663 4.03989 13.1194C3.99312 13.0725 3.94635 13.0256 3.89959 13.0256C3.85282 12.9787 3.71252 13.0256 3.66575 13.0256C3.61898 13.0256 3.52545 13.0256 3.47868 13.0256C3.43191 13.0256 3.33838 13.0256 3.29161 13.0256C3.19808 13.0256 3.19808 12.9787 3.15131 12.9318C3.10454 12.8849 3.10454 12.838 3.05778 12.7911C3.01101 12.7442 2.96424 12.7442 2.91747 12.6973C2.8707 12.6504 2.82393 12.6504 2.7304 12.6504C2.63686 12.6504 2.5901 12.7442 2.5901 12.838C2.5901 12.8849 2.54333 12.8849 2.49656 12.9318C2.49656 12.9787 2.35626 12.8849 2.30949 12.9318C2.21596 13.0256 2.21596 12.9318 2.21596 12.838C2.21596 12.7442 2.21596 12.7442 2.21596 12.6504C2.21596 12.6035 2.07565 12.5566 2.07565 12.5566C2.02889 12.5097 1.98212 12.5097 1.88859 12.5097C1.79505 12.5097 1.79505 12.4159 1.74828 12.369C1.70152 12.3221 1.70152 12.2283 1.65475 12.1814C1.65475 12.1345 1.56121 12.1345 1.51445 12.0876C1.42091 12.0407 1.32738 12.0407 1.28061 11.9938C1.23384 11.9469 1.18707 11.8531 1.18707 11.7593C1.18707 11.7124 1.1403 11.6186 1.09353 11.5717C0.999999 11.5248 1 11.5248 1 11.431C1 11.3372 1.09353 11.2903 1.09353 11.2434C1.09353 11.1965 1.1403 11.1027 1.1403 11.1027C1.18707 11.0558 1.18707 11.0558 1.28061 11.0089C1.32738 10.962 1.37414 10.9151 1.42091 10.8682C1.46768 10.7744 1.46768 10.7275 1.51445 10.6337C1.51445 10.5868 1.51444 10.4931 1.56121 10.4462C1.60798 10.3524 1.60798 10.3524 1.70151 10.2586C1.74828 10.2117 1.79505 10.1648 1.84182 10.1179C1.88858 10.071 1.88859 10.0241 1.88859 9.97716C1.88859 9.88336 1.88858 9.88336 1.93535 9.83646C2.02889 9.78956 1.88858 9.69577 2.07565 9.74267C2.16919 9.78957 2.26273 9.83646 2.35626 9.83646C2.4498 9.83646 2.49656 9.88337 2.54333 9.88337M2.54333 9.88337C2.5901 9.93026 2.54333 10.0241 2.54333 9.88337ZM2.54333 9.88337C2.54333 9.78957 2.54333 9.74266 2.49656 9.69576C2.44979 9.64887 2.44979 9.60197 2.40303 9.55507C2.40303 9.50817 2.35626 9.46127 2.35626 9.41437C2.35626 9.36748 2.35626 9.27367 2.35626 9.22677C2.35626 9.17987 2.35626 9.08608 2.35626 9.03918C2.35626 8.99228 2.35626 8.89848 2.35626 8.85158C2.35626 8.80468 2.35626 8.71088 2.35626 8.66399M2.35626 8.71089C2.35626 8.66399 2.35626 8.47639 2.35626 8.38259C2.35626 8.28879 2.49657 8.2888 2.5901 8.2419C2.63687 8.2419 2.68363 8.1481 2.7304 8.1012C2.77717 8.0074 2.7304 8.00739 2.82394 7.9136C2.91747 7.8667 2.96424 7.8198 3.01101 7.7729C3.10454 7.67911 3.15131 7.67911 3.19807 7.53841C3.24484 7.44461 3.33838 7.35081 3.38515 7.25701C3.43191 7.16321 3.47868 7.16321 3.52545 7.11631C3.57222 7.06941 3.66575 7.02251 3.71252 6.97561C3.75929 6.92871 3.80606 6.92872 3.85282 6.83492C3.89959 6.78802 4.03989 6.74112 4.08666 6.69422C4.13343 6.64732 4.1802 6.60042 4.22696 6.55352C4.27373 6.50663 4.3205 6.45972 4.41403 6.41283C4.4608 6.36593 4.50757 6.36593 4.55434 6.31903C4.64787 6.27213 4.6011 6.27213 4.7414 6.27213C4.78817 6.27213 4.88171 6.27213 4.92848 6.27213C4.97525 6.27213 5.02201 6.17833 5.02201 6.17833C5.06878 6.13143 5.11554 6.08453 5.11554 6.03763C5.16231 5.99074 5.20908 5.94383 5.20908 5.89694C5.25585 5.85004 5.25585 5.80314 5.25585 5.75624C5.25585 5.66244 5.30261 5.61554 5.30261 5.52175C5.30261 5.42795 5.25585 5.38105 5.20908 5.33415C5.16231 5.28725 5.16231 5.24035 5.11554 5.19345C5.06878 5.09965 5.11554 5.09965 5.11554 5.05275C5.16231 5.00585 5.25584 5.00585 5.30261 5.00585C5.44291 5.00585 5.34938 4.95895 5.30261 4.91205C5.25584 4.86516 5.20908 4.86515 5.20908 4.77136C5.16231 4.72446 5.16232 4.63066 5.16232 4.58376C5.16232 4.48996 5.06877 4.39616 5.06877 4.30236C5.06877 4.20857 5.02201 4.20857 4.97524 4.11477C4.97524 4.06787 4.92847 4.02097 4.88171 3.97407C4.83494 3.92717 4.78817 3.83337 4.78817 3.78648C4.74141 3.73958 4.69464 3.64578 4.64787 3.59888C4.6011 3.55198 4.6011 3.50508 4.6011 3.45818C4.6011 3.41128 4.6011 3.31748 4.6011 3.27059C4.6011 3.22369 4.6011 3.12989 4.6011 3.08299C4.6011 3.03609 4.6011 2.94229 4.55434 2.89539C4.50757 2.84849 4.50757 2.84849 4.50757 2.80159M15.7785 17.1996C15.7785 17.2465 15.7785 17.3403 15.7785 17.3872C15.7785 17.4341 15.7785 17.5279 15.7785 17.5748C15.7785 17.6217 15.7785 17.6686 15.7785 17.7624C15.7785 17.8562 15.8253 17.9031 15.8253 17.95C15.8253 17.9969 15.8721 18.0438 15.9188 18.0907C15.9656 18.1376 16.0591 18.1845 16.1059 18.1845C16.1527 18.2314 16.1527 18.2783 16.1527 18.3252C16.1527 18.419 16.0591 18.3721 15.9656 18.3721C15.9188 18.3721 15.8253 18.3721 15.7785 18.3721C15.7318 18.3721 15.685 18.3721 15.6382 18.419C15.5915 18.4659 15.4979 18.419 15.4512 18.3721C15.4044 18.3252 15.4044 18.2783 15.4044 18.2314C15.3576 18.1845 15.3109 18.1845 15.2641 18.1845C15.2173 18.2314 15.2173 18.3252 15.1706 18.3252C15.1238 18.3721 15.077 18.3252 15.0303 18.2783C14.9835 18.2314 14.9835 18.1376 14.9367 18.1376C14.89 18.0907 14.8432 18.0907 14.7964 18.0438C14.7497 18.0438 14.6094 18.1845 14.5626 18.1845C14.5158 18.2314 14.4223 18.2783 14.3755 18.2783C14.282 18.2783 14.282 18.1376 14.2352 18.0907C14.2352 18.0438 14.2352 17.9969 14.2352 17.95C14.2352 17.8562 14.0949 17.95 14.0949 17.95C14.0481 17.9969 13.9546 17.9969 13.9546 18.0438C13.9078 18.0907 13.8611 18.0907 13.8143 18.1376C13.7675 18.1845 13.8143 18.2783 13.8143 18.2783C13.8143 18.3252 13.8611 18.3721 13.8611 18.419C13.8611 18.4659 13.8611 18.5597 13.8611 18.6066C13.8611 18.6535 13.9078 18.7004 13.9078 18.7473C13.9546 18.7942 13.9546 18.7942 13.9546 18.888C13.9546 18.9818 13.9078 19.0287 13.8611 19.0756C13.8143 19.1225 13.7675 19.1694 13.7675 19.2163C13.7675 19.2632 13.7675 19.3101 13.7675 19.357C13.7208 19.4508 13.5805 19.4508 13.5337 19.4508C13.4869 19.4508 13.4402 19.4977 13.4402 19.5446C13.3934 19.5915 13.4402 19.6384 13.4402 19.6853C13.4402 19.7791 13.4402 19.7791 13.3934 19.826C13.3466 19.8729 13.2999 19.8729 13.2531 19.9667C13.2063 20.0136 13.2063 20.1074 13.1128 20.1074C13.0193 20.1074 13.0193 20.1543 12.9725 20.2012C12.9257 20.2481 12.9725 20.3419 12.9725 20.3419C12.9725 20.3888 13.0193 20.4826 13.0193 20.5295C13.0193 20.6233 12.879 20.6702 12.8322 20.6702C12.7854 20.7171 12.6451 20.7171 12.5516 20.6702C12.5048 20.6233 12.4581 20.6702 12.4113 20.7171C12.3645 20.764 12.3645 20.8578 12.4113 20.9047C12.4113 20.9516 12.5048 21.0454 12.5516 21.0454C12.5983 21.0923 12.6919 21.1392 12.7387 21.1861C12.7854 21.1861 12.8322 21.3268 12.879 21.3268C12.9257 21.3736 13.0193 21.3736 13.066 21.4205C13.1128 21.4205 13.2063 21.4674 13.2531 21.4674C13.2999 21.4674 13.3466 21.4674 13.3934 21.4674C13.4869 21.4674 13.4869 21.4675 13.4869 21.3737C13.4869 21.3268 13.4869 21.233 13.4869 21.1861C13.4869 21.0923 13.5805 21.1392 13.6272 21.1392C13.674 21.1392 13.7208 21.233 13.7208 21.2798C13.7675 21.3267 13.8143 21.3267 13.8611 21.2798C13.9078 21.233 14.0014 21.233 14.0481 21.1861C14.1417 21.1392 14.2352 21.0923 14.3287 21.0454C14.3755 20.9985 14.4691 20.9985 14.5158 20.9985C14.6094 20.9985 14.6561 20.9516 14.7497 20.9516C14.8432 20.9516 14.89 20.9516 14.9367 20.9516C14.9835 20.9985 15.0303 20.9985 15.077 21.0454C15.1238 21.0923 15.1706 21.1392 15.1706 21.1861C15.1706 21.233 15.1706 21.2799 15.1706 21.3268C15.1706 21.3736 15.1706 21.4205 15.1706 21.5143C15.1706 21.5612 15.2641 21.5612 15.3109 21.5612C15.3109 21.5612 15.3576 21.4206 15.3576 21.3737C15.3576 21.3268 15.4512 21.2799 15.4979 21.233C15.5447 21.1861 15.5447 21.0923 15.4979 21.0454C15.4979 20.9516 15.4512 20.9516 15.4044 20.9047C15.3576 20.8578 15.3109 20.8109 15.2641 20.764C15.2173 20.7171 15.2173 20.6233 15.1706 20.5764C15.1706 20.5295 15.1238 20.4826 15.1238 20.4357C15.077 20.3888 15.1238 20.2481 15.1238 20.2012C15.1238 20.1543 15.1238 20.0605 15.1238 20.0136C15.1238 19.9667 15.2173 19.9198 15.2641 19.9198C15.3109 19.9198 15.3576 20.1543 15.3576 20.2012C15.3576 20.295 15.3576 20.3419 15.4044 20.3888C15.4512 20.3888 15.4512 20.3888 15.4979 20.3888C15.5915 20.3888 15.5915 20.3419 15.6382 20.295C15.685 20.2481 15.5915 20.1543 15.5915 20.1074C15.5447 20.0605 15.5447 20.0136 15.5915 20.0136C15.6382 20.0136 15.685 20.0136 15.7318 19.9667C15.7785 19.9198 15.7785 19.8729 15.7785 19.826C15.7785 19.7791 15.8253 19.7791 15.8721 19.7322C15.9188 19.6853 15.9656 19.6853 16.0124 19.6853C16.0591 19.6853 16.1059 19.7322 16.1527 19.7322C16.1995 19.7322 16.2462 19.6384 16.293 19.6384C16.3398 19.6384 16.3865 19.6384 16.4333 19.6384C16.4801 19.6384 16.5268 19.5446 16.5268 19.5446C16.5736 19.4977 16.5736 19.4508 16.6204 19.4039C16.6671 19.357 16.6671 19.3101 16.7139 19.2632C16.7607 19.2163 16.7607 19.2163 16.7607 19.1694C16.7607 19.1225 16.7607 19.0756 16.7607 19.0287C16.7607 18.9818 16.7139 18.9349 16.7139 18.888C16.7139 18.8411 16.6671 18.8411 16.6204 18.7942C16.5736 18.7942 16.5736 18.7473 16.5268 18.7004C16.4801 18.6535 16.4333 18.6535 16.4333 18.6066C16.3865 18.5597 16.3865 18.5128 16.3398 18.4659C16.293 18.3721 16.293 18.2783 16.2462 18.1845C16.1995 18.0907 16.1995 18.1376 16.2462 18.0907C16.293 18.0438 16.293 18.0438 16.3398 18.0438C16.3865 18.0438 16.4333 18.0438 16.4801 18.0907L16.5268 18.1845C16.5268 18.2314 16.6204 18.2314 16.6204 18.2783C16.6204 18.3252 16.6204 18.3721 16.6671 18.4659C16.7139 18.5128 16.7139 18.5128 16.7607 18.5128L16.8074 18.6535C16.8074 18.7004 16.901 18.7004 16.901 18.7473C16.9477 18.7942 16.9477 18.7942 16.9945 18.7942C17.0413 18.7942 17.088 18.7473 17.1348 18.7004C17.1816 18.6535 17.1816 18.6066 17.1816 18.5597C17.1816 18.5128 17.2283 18.4659 17.2751 18.419C17.3219 18.3721 17.3686 18.3721 17.3686 18.3252C17.4154 18.2783 17.4154 18.1845 17.4154 18.1376C17.4154 18.0907 17.4154 18.0438 17.4154 17.9969C17.4154 17.95 17.4154 17.9031 17.4154 17.8562C17.4154 17.8093 17.4622 17.7624 17.5089 17.7155C17.5557 17.6686 17.6492 17.7155 17.7428 17.7155C17.8831 17.7155 17.8363 17.7155 17.9298 17.6686C17.9766 17.6217 18.0234 17.6217 18.0702 17.5748C18.1169 17.5279 18.2572 17.5748 18.3508 17.5748C18.3975 17.5748 18.4443 17.5748 18.4911 17.5748" stroke="#F05C28"/>
</svg>
