<svg width="32" height="32" viewBox="0 0 32 32" fill="none" xmlns="http://www.w3.org/2000/svg">
<path d="M0.625 5.78125H31.375C31.7201 5.78125 32 6.06113 32 6.40625V25.5938C32 25.9389 31.7201 26.2188 31.375 26.2188H0.625C0.279875 26.2188 0 25.9389 0 25.5938V6.40625C0 6.06113 0.279875 5.78125 0.625 5.78125ZM1.25 24.9688H30.75V7.03125H1.25V24.9688Z" fill="#F05C28"/>
<path d="M28.209 12.3438H24.3965C24.0514 12.3438 23.7715 12.0639 23.7715 11.7188V9.09375C23.7715 8.74863 24.0514 8.46875 24.3965 8.46875H28.209C28.5541 8.46875 28.834 8.74863 28.834 9.09375V11.7188C28.834 12.0639 28.5541 12.3438 28.209 12.3438ZM27.584 9.71875H25.0215V11.0938H27.584V9.71875Z" fill="#F05C28"/>
<path d="M13.007 17.3116C12.9945 18.25 13.8847 18.7737 14.5553 19.0851C15.2444 19.4046 15.4758 19.6094 15.4732 19.8951C15.4679 20.3323 14.9235 20.5253 14.414 20.5328C13.5251 20.546 13.0083 20.3042 12.5974 20.1212L12.2772 21.5489C12.6895 21.73 13.4528 21.8878 14.2444 21.8947C16.1024 21.8947 17.318 21.0208 17.3246 19.6658C17.3318 17.9462 14.8282 17.851 14.8453 17.0823C14.8512 16.8493 15.0846 16.6006 15.5961 16.5373C15.8492 16.5054 16.5481 16.4809 17.3403 16.8286L17.6513 15.4473C17.2253 15.2994 16.6776 15.1579 15.9958 15.1579C14.247 15.1579 13.0169 16.0437 13.007 17.3116ZM20.6395 15.2769C20.3002 15.2769 20.0142 15.4655 19.8867 15.7549L17.2325 21.7932H19.0892L19.4587 20.8204H21.7276L21.9419 21.7932H23.5783L22.1503 15.2769H20.6395ZM20.8992 17.0372L21.435 19.4841H19.9676L20.8992 17.0372ZM10.7559 15.2769L9.29238 21.7932H11.0616L12.5245 15.2769H10.7559ZM8.13854 15.2769L6.29699 19.7122L5.55209 15.9409C5.46465 15.52 5.11948 15.2769 4.73618 15.2769H1.72567L1.68359 15.4661C2.30161 15.5939 3.00377 15.8 3.42915 16.0205C3.6895 16.1552 3.7638 16.273 3.84927 16.5931L5.26018 21.7932H7.12999L9.99652 15.2769H8.13854Z" fill="#F05C28"/>
</svg>
