<?xml version="1.0" encoding="utf-8"?>
<svg type="submit" width="16" height="16" viewBox="0 0 16 16" xmlns="http://www.w3.org/2000/svg">
	<path d="M7.33325 1.33333C10.6453 1.33333 13.3333 4.02133 13.3333 7.33333C13.3333 10.6453 10.6453 13.3333 7.33325 13.3333C4.02125 13.3333 1.33325 10.6453 1.33325 7.33333C1.33325 4.02133 4.02125 1.33333 7.33325 1.33333ZM7.33325 12C9.91125 12 11.9999 9.91133 11.9999 7.33333C11.9999 4.75466 9.91125 2.66666 7.33325 2.66666C4.75459 2.66666 2.66659 4.75466 2.66659 7.33333C2.66659 9.91133 4.75459 12 7.33325 12ZM12.9899 12.0473L14.8759 13.9327L13.9326 14.876L12.0473 12.99L12.9899 12.0473Z" fill="#929299">
	</path>
</svg>